<svg width="64" height="64" viewBox="0 0 64 64" fill="none" xmlns="http://www.w3.org/2000/svg">
<path d="M21.627 28.3125C22.1754 28.0083 22.6326 27.5629 22.9509 27.0225C23.2693 26.4822 23.4373 25.8664 23.4375 25.2393V6.07617C23.4376 5.48696 23.2895 4.90718 23.007 4.39012C22.7245 3.87306 22.3166 3.43529 21.8207 3.11706C21.3248 2.79882 20.7569 2.61032 20.1691 2.56888C19.5814 2.52743 18.9927 2.63438 18.457 2.87988C12.9559 5.4116 8.29446 9.4653 5.02376 14.5619C1.75306 19.6585 0.00979866 25.5848 0 31.6406C0 32.6279 0.0468748 33.6211 0.137695 34.5996C0.192125 35.181 0.390534 35.7398 0.715003 36.2253C1.03947 36.7108 1.47978 37.1079 1.99616 37.3806C2.51253 37.6533 3.08871 37.7931 3.67266 37.7874C4.2566 37.7816 4.82992 37.6305 5.34082 37.3477L21.627 28.3125ZM16.4062 12.3223V23.1621L7.26856 28.2305C8.16152 21.9521 11.4329 16.2569 16.4062 12.3223ZM31.6406 0C30.7082 0 29.814 0.370395 29.1547 1.0297C28.4954 1.68901 28.125 2.58322 28.125 3.51562V29.7451L5.61914 42.8525C5.21893 43.0856 4.86873 43.3955 4.58864 43.7643C4.30856 44.1332 4.10411 44.5537 3.98705 45.0019C3.86999 45.45 3.84262 45.9168 3.90651 46.3755C3.97041 46.8342 4.12431 47.2757 4.35938 47.6748C7.16855 52.4537 11.184 56.4107 16.0035 59.1496C20.8231 61.8885 26.2776 63.313 31.8209 63.2807C37.3643 63.2484 42.8018 61.7602 47.5891 58.9653C52.3764 56.1704 56.3453 52.1668 59.0986 47.3555C61.8518 42.5441 63.2927 37.0939 63.2769 31.5505C63.2611 26.0071 61.7892 20.5651 59.0086 15.7695C56.228 10.9739 52.2362 6.99302 47.4331 4.22544C42.63 1.45786 37.184 0.000746222 31.6406 0ZM31.6406 56.25C27.9534 56.24 24.315 55.4062 20.9913 53.8096C17.6677 52.2129 14.7429 49.8937 12.4307 47.0215L33.3984 34.8018C33.9319 34.4937 34.3751 34.051 34.6836 33.5178C34.9921 32.9846 35.1551 32.3797 35.1562 31.7637V7.28027C41.3191 8.1637 46.9181 11.3501 50.825 16.1975C54.7318 21.0449 56.6563 27.193 56.2105 33.4029C55.7646 39.6127 52.9817 45.4228 48.4225 49.6624C43.8632 53.902 37.8665 56.256 31.6406 56.25Z" fill="#D9D9D9"/>
</svg>
