<svg width="170" height="103" viewBox="0 0 170 103" fill="none" xmlns="http://www.w3.org/2000/svg">
<path d="M74.4863 34.1719C75.0348 33.8677 75.4919 33.4223 75.8103 32.8819C76.1287 32.3415 76.2967 31.7258 76.2969 31.0986V11.9355C76.2969 11.3463 76.1489 10.7666 75.8664 10.2495C75.5839 9.73243 75.1759 9.29467 74.6801 8.97643C74.1842 8.6582 73.6163 8.46969 73.0285 8.42825C72.4408 8.38681 71.852 8.49375 71.3164 8.73926C65.8152 11.271 61.1538 15.3247 57.8831 20.4213C54.6124 25.5178 52.8692 31.4442 52.8594 37.5C52.8594 38.4873 52.9062 39.4805 52.9971 40.459C53.0515 41.0404 53.2499 41.5991 53.5744 42.0847C53.8988 42.5702 54.3392 42.9673 54.8555 43.24C55.3719 43.5127 55.9481 43.6525 56.532 43.6468C57.116 43.641 57.6893 43.4899 58.2002 43.207L74.4863 34.1719ZM69.2656 18.1816V29.0215L60.1279 34.0898C61.0209 27.8114 64.2922 22.1162 69.2656 18.1816ZM84.5 5.85938C83.5676 5.85938 82.6734 6.22977 82.0141 6.88908C81.3548 7.54839 80.9844 8.4426 80.9844 9.375V35.6045L58.4785 48.7119C58.0783 48.945 57.7281 49.2549 57.448 49.6237C57.1679 49.9926 56.9635 50.4131 56.8464 50.8612C56.7294 51.3093 56.702 51.7761 56.7659 52.2349C56.8298 52.6936 56.9837 53.1351 57.2188 53.5342C60.0279 58.3131 64.0433 62.2701 68.8629 65.009C73.6824 67.7478 79.137 69.1724 84.6803 69.1401C90.2236 69.1077 95.6612 67.6196 100.448 64.8247C105.236 62.0298 109.205 58.0262 111.958 53.2149C114.711 48.4035 116.152 42.9532 116.136 37.4098C116.12 31.8664 114.649 26.4245 111.868 21.6289C109.087 16.8333 105.096 12.8524 100.292 10.0848C95.4894 7.31724 90.0434 5.86012 84.5 5.85938ZM84.5 62.1094C80.8128 62.0994 77.1743 61.2656 73.8507 59.6689C70.5271 58.0723 67.6023 55.7531 65.29 52.8809L86.2578 40.6611C86.7913 40.3531 87.2345 39.9103 87.543 39.3771C87.8515 38.844 88.0145 38.2391 88.0156 37.623V13.1396C94.1785 14.0231 99.7774 17.2095 103.684 22.0569C107.591 26.9043 109.516 33.0524 109.07 39.2622C108.624 45.4721 105.841 51.2822 101.282 55.5218C96.7226 59.7614 90.7258 62.1153 84.5 62.1094Z" fill="#123DC8"/>
<path d="M84.5 62.1094C80.8128 62.0994 77.1743 61.2656 73.8507 59.6689C70.5271 58.0723 67.6023 55.7531 65.29 52.8809L86.2578 40.6611C86.7913 40.3531 87.2345 39.9103 87.543 39.3771C87.8515 38.844 88.0145 38.2391 88.0156 37.623V13.1396C94.1785 14.0231 99.7774 17.2095 103.684 22.0569C107.591 26.9043 109.516 33.0524 109.07 39.2622C108.624 45.4721 105.841 51.2822 101.282 55.5218C96.7226 59.7614 90.7258 62.1153 84.5 62.1094Z" fill="#123DC8"/>
<path d="M69.2656 18.1816V29.0215L60.1279 34.0898C61.0209 27.8114 64.2922 22.1162 69.2656 18.1816Z" fill="#123DC8"/>
<path d="M6.23419 96.8128H1.73411L1.76277 94.0464H6.23419C7.44759 94.0464 8.46513 93.8073 9.2868 93.3291C10.1085 92.8425 10.7295 92.1466 11.1499 91.2415C11.5703 90.328 11.7805 89.2351 11.7805 87.9629V87.0023C11.7805 86.0204 11.661 85.1538 11.4222 84.4024C11.1833 83.651 10.8298 83.0192 10.3617 82.5069C9.90305 81.9946 9.33457 81.6061 8.65621 81.3414C7.97786 81.0768 7.19918 80.9444 6.32018 80.9444H1.64812V78.1652H6.32018C7.71511 78.1652 8.98584 78.3744 10.1324 78.7928C11.2884 79.2112 12.2869 79.8131 13.1276 80.5986C13.978 81.3756 14.6277 82.3063 15.0767 83.3906C15.5353 84.475 15.7646 85.6874 15.7646 87.0279V87.9629C15.7646 89.2948 15.5353 90.5073 15.0767 91.6002C14.6277 92.6845 13.978 93.6152 13.1276 94.3922C12.2869 95.1691 11.2837 95.7668 10.118 96.1852C8.9524 96.6036 7.65779 96.8128 6.23419 96.8128ZM3.94116 78.1652V96.8128H0V78.1652H3.94116Z" fill="#123DC8"/>
<path d="M25.7967 97.0689C24.6215 97.0689 23.5657 96.8981 22.6294 96.5566C21.6931 96.2151 20.8953 95.7412 20.236 95.135C19.5864 94.5202 19.0848 93.8073 18.7312 92.9962C18.3873 92.1765 18.2153 91.297 18.2153 90.3578V89.8455C18.2153 88.7783 18.3873 87.8092 18.7312 86.9383C19.0752 86.0588 19.5625 85.3032 20.1931 84.6714C20.8236 84.0395 21.5784 83.5529 22.4574 83.2113C23.3364 82.8698 24.3062 82.699 25.3667 82.699C26.4655 82.699 27.4352 82.8655 28.276 83.1985C29.1168 83.523 29.819 83.984 30.3827 84.5817C30.9464 85.1794 31.3716 85.8966 31.6582 86.7333C31.9449 87.5616 32.0882 88.4794 32.0882 89.4869V90.9086H19.9351V88.5776H28.362V88.3215C28.3429 87.7836 28.2282 87.2926 28.018 86.8486C27.8078 86.3961 27.483 86.0375 27.0435 85.7728C26.604 85.4996 26.0355 85.363 25.3381 85.363C24.7743 85.363 24.2823 85.474 23.8619 85.696C23.4511 85.9094 23.1071 86.2168 22.83 86.6181C22.5625 87.0108 22.3619 87.4804 22.2281 88.0269C22.0944 88.5733 22.0275 89.1796 22.0275 89.8455V90.3578C22.0275 90.9384 22.1135 91.4763 22.2854 91.9716C22.467 92.4668 22.7297 92.898 23.0737 93.2651C23.4272 93.6237 23.8476 93.9055 24.3349 94.1104C24.8317 94.3068 25.3954 94.405 26.026 94.405C26.819 94.405 27.5355 94.2684 28.1757 93.9951C28.8254 93.7134 29.3891 93.2993 29.8668 92.7528L31.7729 94.5202C31.448 94.9471 31.0085 95.357 30.4544 95.7497C29.9098 96.1425 29.2505 96.4627 28.4766 96.7103C27.7027 96.9494 26.8094 97.0689 25.7967 97.0689Z" fill="#123DC8"/>
<path d="M43.1521 93.0218C43.1521 92.7315 43.0661 92.4711 42.8941 92.2405C42.7221 92.01 42.3973 91.8008 41.9196 91.613C41.4514 91.4166 40.7635 91.233 39.8558 91.0622C39.0533 90.9086 38.3128 90.7164 37.6345 90.4859C36.9561 90.2554 36.3733 89.9779 35.886 89.6534C35.3988 89.3204 35.0166 88.9319 34.7395 88.488C34.472 88.0354 34.3382 87.5146 34.3382 86.9255C34.3382 86.3534 34.4768 85.8155 34.7538 85.3117C35.0309 84.7994 35.4322 84.3512 35.9577 83.967C36.4832 83.5742 37.1233 83.2668 37.8781 83.0448C38.6329 82.8143 39.4832 82.699 40.4291 82.699C41.7476 82.699 42.8798 82.8911 43.8257 83.2754C44.7811 83.6596 45.512 84.189 46.0184 84.8635C46.5248 85.5295 46.7779 86.2808 46.7779 87.1176H42.9944C42.9944 86.7504 42.8989 86.4174 42.7078 86.1186C42.5263 85.8198 42.2444 85.5807 41.8622 85.4014C41.4801 85.2135 40.9976 85.1196 40.4148 85.1196C39.8893 85.1196 39.445 85.1965 39.0819 85.3502C38.7284 85.5038 38.4609 85.7045 38.2794 85.9521C38.0978 86.1997 38.0071 86.4729 38.0071 86.7718C38.0071 86.9938 38.0549 87.1944 38.1504 87.3737C38.2555 87.5445 38.4227 87.7024 38.652 87.8476C38.8813 87.9927 39.1918 88.1251 39.5835 88.2446C39.9848 88.3642 40.4769 88.4794 41.0597 88.5904C42.2158 88.7953 43.2237 89.0686 44.0836 89.4101C44.9531 89.7431 45.6314 90.1871 46.1187 90.7421C46.606 91.297 46.8496 92.0057 46.8496 92.8681C46.8496 93.4828 46.7015 94.0464 46.4053 94.5587C46.1091 95.0624 45.6792 95.5021 45.1155 95.8778C44.5518 96.2535 43.8782 96.5481 43.0948 96.7615C42.3113 96.9664 41.4275 97.0689 40.4434 97.0689C39.0198 97.0689 37.816 96.8426 36.8319 96.3901C35.8478 95.929 35.1026 95.3484 34.5962 94.6483C34.0898 93.9396 33.8366 93.2053 33.8366 92.4454H37.4625C37.4911 92.9833 37.6536 93.4145 37.9498 93.739C38.2459 94.0634 38.6186 94.2982 39.0676 94.4434C39.5262 94.58 40.0087 94.6483 40.5151 94.6483C41.0883 94.6483 41.5708 94.58 41.9626 94.4434C42.3543 94.2982 42.6505 94.1061 42.8511 93.8671C43.0518 93.6194 43.1521 93.3377 43.1521 93.0218Z" fill="#123DC8"/>
<path d="M56.6953 97.0689C55.5201 97.0689 54.4644 96.8981 53.5281 96.5566C52.5918 96.2151 51.794 95.7412 51.1347 95.135C50.485 94.5202 49.9834 93.8073 49.6299 92.9962C49.286 92.1765 49.114 91.297 49.114 90.3578V89.8455C49.114 88.7783 49.286 87.8092 49.6299 86.9383C49.9739 86.0588 50.4611 85.3032 51.0917 84.6714C51.7223 84.0395 52.4771 83.5529 53.3561 83.2113C54.2351 82.8698 55.2049 82.699 56.2654 82.699C57.3641 82.699 58.3339 82.8655 59.1747 83.1985C60.0155 83.523 60.7177 83.984 61.2814 84.5817C61.8451 85.1794 62.2703 85.8966 62.5569 86.7333C62.8435 87.5616 62.9868 88.4794 62.9868 89.4869V90.9086H50.8338V88.5776H59.2607V88.3215C59.2416 87.7836 59.1269 87.2926 58.9167 86.8486C58.7065 86.3961 58.3817 86.0375 57.9422 85.7728C57.5027 85.4996 56.9342 85.363 56.2367 85.363C55.673 85.363 55.181 85.474 54.7606 85.696C54.3497 85.9094 54.0058 86.2168 53.7287 86.6181C53.4612 87.0108 53.2606 87.4804 53.1268 88.0269C52.993 88.5733 52.9262 89.1796 52.9262 89.8455V90.3578C52.9262 90.9384 53.0121 91.4763 53.1841 91.9716C53.3657 92.4668 53.6284 92.898 53.9723 93.2651C54.3259 93.6237 54.7463 93.9055 55.2335 94.1104C55.7303 94.3068 56.294 94.405 56.9246 94.405C57.7176 94.405 58.4342 94.2684 59.0744 93.9951C59.724 93.7134 60.2878 93.2993 60.7655 92.7528L62.6716 94.5202C62.3467 94.9471 61.9072 95.357 61.3531 95.7497C60.8085 96.1425 60.1492 96.4627 59.3753 96.7103C58.6014 96.9494 57.7081 97.0689 56.6953 97.0689Z" fill="#123DC8"/>
<path d="M69.2927 85.7984V96.8128H65.5092V82.9552H69.0777L69.2927 85.7984ZM68.7338 89.3845H67.5729C67.5729 88.4197 67.7019 87.5317 67.9599 86.7205C68.2274 85.9094 68.6191 85.205 69.1351 84.6073C69.651 84.0011 70.2863 83.5315 71.0411 83.1985C71.8055 82.8655 72.6893 82.699 73.6925 82.699C74.3899 82.699 75.0301 82.7929 75.6129 82.9808C76.1957 83.1601 76.6973 83.4461 77.1177 83.8389C77.5476 84.2231 77.8773 84.7269 78.1066 85.3502C78.3359 85.9649 78.4505 86.7035 78.4505 87.5658V96.8128H74.667V87.9116C74.667 87.2627 74.5619 86.7547 74.3517 86.3876C74.1511 86.0204 73.8597 85.7643 73.4775 85.6191C73.0953 85.4654 72.6367 85.3886 72.1017 85.3886C71.5093 85.3886 70.9981 85.4953 70.5682 85.7088C70.1478 85.9137 69.7991 86.1997 69.522 86.5669C69.2545 86.934 69.0538 87.3566 68.9201 87.8348C68.7959 88.3129 68.7338 88.8295 68.7338 89.3845ZM78.1639 88.7569L76.6018 89.0131C76.6113 88.1422 76.7451 87.3268 77.003 86.5669C77.261 85.7984 77.6384 85.1282 78.1352 84.5561C78.6416 83.9755 79.2674 83.523 80.0126 83.1985C80.7674 82.8655 81.6369 82.699 82.621 82.699C83.3853 82.699 84.0732 82.7972 84.6847 82.9936C85.3057 83.1814 85.836 83.4845 86.2755 83.9029C86.715 84.3128 87.0494 84.8464 87.2787 85.5038C87.5176 86.1613 87.637 86.9639 87.637 87.9116V96.8128H83.8248V87.8988C83.8248 87.2243 83.7197 86.7077 83.5095 86.3491C83.3089 85.9905 83.0175 85.7429 82.6353 85.6063C82.2531 85.4612 81.8041 85.3886 81.2881 85.3886C80.7627 85.3886 80.3041 85.4782 79.9123 85.6575C79.5302 85.8283 79.2053 86.0674 78.9378 86.3747C78.6798 86.6821 78.484 87.0407 78.3502 87.4506C78.226 87.8519 78.1639 88.2873 78.1639 88.7569Z" fill="#123DC8"/>
<path d="M94.8171 85.6191V102.141H91.0192V82.9552H94.5304L94.8171 85.6191ZM104.777 89.7431V90.012C104.777 91.0196 104.644 91.9545 104.376 92.8169C104.118 93.6707 103.736 94.4178 103.23 95.0581C102.723 95.69 102.093 96.1852 101.338 96.5438C100.593 96.8939 99.7328 97.0689 98.7582 97.0689C97.8028 97.0689 96.9716 96.9067 96.2645 96.5822C95.5575 96.2492 94.9604 95.7796 94.4731 95.1734C93.9858 94.5672 93.5941 93.8628 93.2979 93.0602C93.0113 92.2491 92.7963 91.3654 92.653 90.4091V89.551C92.7963 88.5349 93.0113 87.6128 93.2979 86.7846C93.5941 85.9478 93.9858 85.2263 94.4731 84.6201C94.9604 84.0054 95.5527 83.5315 96.2502 83.1985C96.9572 82.8655 97.7837 82.699 98.7296 82.699C99.7137 82.699 100.578 82.8655 101.324 83.1985C102.078 83.5315 102.714 84.0096 103.23 84.6329C103.746 85.2562 104.133 85.9991 104.39 86.8614C104.648 87.7238 104.777 88.6843 104.777 89.7431ZM100.98 90.012V89.7431C100.98 89.1283 100.917 88.5605 100.793 88.0397C100.669 87.5103 100.478 87.0493 100.22 86.6565C99.9621 86.2552 99.6277 85.9436 99.2168 85.7216C98.806 85.4996 98.3092 85.3886 97.7264 85.3886C97.1435 85.3886 96.6419 85.474 96.2215 85.6447C95.8012 85.8155 95.4572 86.0588 95.1897 86.3747C94.9222 86.6907 94.712 87.0663 94.5591 87.5018C94.4158 87.9287 94.3202 88.4026 94.2725 88.9234V91.0494C94.3585 91.6813 94.5257 92.2491 94.7741 92.7528C95.0225 93.2566 95.3855 93.6579 95.8633 93.9567C96.3505 94.2555 96.9811 94.405 97.755 94.405C98.3378 94.405 98.8347 94.2897 99.2455 94.0592C99.6563 93.8286 99.9907 93.5127 100.249 93.1114C100.507 92.7016 100.693 92.232 100.808 91.7026C100.922 91.1732 100.98 90.6097 100.98 90.012Z" fill="#123DC8"/>
<path d="M114.509 97.0689C113.333 97.0689 112.278 96.8981 111.341 96.5566C110.405 96.2151 109.607 95.7412 108.948 95.135C108.298 94.5202 107.797 93.8073 107.443 92.9962C107.099 92.1765 106.927 91.297 106.927 90.3578V89.8455C106.927 88.7783 107.099 87.8092 107.443 86.9383C107.787 86.0588 108.274 85.3032 108.905 84.6714C109.535 84.0395 110.29 83.5529 111.169 83.2113C112.048 82.8698 113.018 82.699 114.079 82.699C115.177 82.699 116.147 82.8655 116.988 83.1985C117.829 83.523 118.531 83.984 119.095 84.5817C119.658 85.1794 120.083 85.8966 120.37 86.7333C120.657 87.5616 120.8 88.4794 120.8 89.4869V90.9086H108.647V88.5776H117.074V88.3215C117.055 87.7836 116.94 87.2926 116.73 86.8486C116.52 86.3961 116.195 86.0375 115.755 85.7728C115.316 85.4996 114.747 85.363 114.05 85.363C113.486 85.363 112.994 85.474 112.574 85.696C112.163 85.9094 111.819 86.2168 111.542 86.6181C111.274 87.0108 111.074 87.4804 110.94 88.0269C110.806 88.5733 110.739 89.1796 110.739 89.8455V90.3578C110.739 90.9384 110.825 91.4763 110.997 91.9716C111.179 92.4668 111.442 92.898 111.786 93.2651C112.139 93.6237 112.559 93.9055 113.047 94.1104C113.544 94.3068 114.107 94.405 114.738 94.405C115.531 94.405 116.247 94.2684 116.888 93.9951C117.537 93.7134 118.101 93.2993 118.579 92.7528L120.485 94.5202C120.16 94.9471 119.72 95.357 119.166 95.7497C118.622 96.1425 117.962 96.4627 117.188 96.7103C116.415 96.9494 115.521 97.0689 114.509 97.0689Z" fill="#123DC8"/>
<path d="M127.049 85.9137V96.8128H123.265V82.9552H126.819L127.049 85.9137ZM126.447 89.3845H125.329C125.338 88.377 125.491 87.4634 125.787 86.6437C126.084 85.824 126.499 85.1196 127.034 84.5305C127.579 83.9413 128.224 83.4888 128.969 83.1729C129.714 82.857 130.545 82.699 131.463 82.699C132.208 82.699 132.881 82.7929 133.483 82.9808C134.085 83.1686 134.601 83.4675 135.031 83.8773C135.471 84.2871 135.805 84.8251 136.034 85.491C136.273 86.1485 136.393 86.9596 136.393 87.9244V96.8128H132.581V87.8988C132.581 87.267 132.475 86.7675 132.265 86.4004C132.065 86.0332 131.768 85.7728 131.377 85.6191C130.994 85.4654 130.522 85.3886 129.958 85.3886C129.375 85.3886 128.864 85.4953 128.424 85.7088C127.994 85.9137 127.631 86.1997 127.335 86.5669C127.049 86.934 126.829 87.3566 126.676 87.8348C126.523 88.3129 126.447 88.8295 126.447 89.3845Z" fill="#123DC8"/>
<path d="M143.444 77.1406V96.8128H139.646V77.1406H143.444ZM142.842 89.3845H141.724C141.724 88.4197 141.867 87.5317 142.154 86.7205C142.441 85.9094 142.847 85.205 143.372 84.6073C143.898 84.0011 144.523 83.5315 145.25 83.1985C145.985 82.8655 146.797 82.699 147.686 82.699C148.45 82.699 149.143 82.7972 149.764 82.9936C150.395 83.1814 150.934 83.4845 151.383 83.9029C151.832 84.3213 152.176 84.8677 152.415 85.5423C152.664 86.2082 152.788 87.0194 152.788 87.9757V96.8128H148.976V87.9501C148.976 87.3097 148.871 86.8059 148.66 86.4388C148.45 86.0631 148.149 85.7941 147.758 85.6319C147.375 85.4697 146.902 85.3886 146.339 85.3886C145.727 85.3886 145.202 85.4953 144.762 85.7088C144.323 85.9137 143.96 86.1997 143.673 86.5669C143.396 86.934 143.186 87.3566 143.042 87.8348C142.909 88.3129 142.842 88.8295 142.842 89.3845Z" fill="#123DC8"/>
<path d="M155.454 90.0248V89.7559C155.454 88.7398 155.616 87.8049 155.941 86.9511C156.266 86.0887 156.739 85.3416 157.36 84.7098C157.981 84.078 158.74 83.587 159.638 83.2369C160.536 82.8783 161.559 82.699 162.705 82.699C163.871 82.699 164.903 82.8783 165.801 83.2369C166.709 83.587 167.473 84.078 168.094 84.7098C168.715 85.3416 169.188 86.0887 169.513 86.9511C169.838 87.8049 170 88.7398 170 89.7559V90.0248C170 91.0324 169.838 91.9673 169.513 92.8297C169.188 93.6835 168.715 94.4306 168.094 95.071C167.473 95.7028 166.713 96.1937 165.815 96.5438C164.917 96.8939 163.89 97.0689 162.734 97.0689C161.587 97.0689 160.56 96.8939 159.653 96.5438C158.745 96.1937 157.981 95.7028 157.36 95.071C156.739 94.4306 156.266 93.6835 155.941 92.8297C155.616 91.9673 155.454 91.0324 155.454 90.0248ZM159.237 89.7559V90.0248C159.237 90.6311 159.304 91.1989 159.438 91.7282C159.571 92.2576 159.777 92.7229 160.054 93.1242C160.331 93.5255 160.689 93.8414 161.129 94.072C161.578 94.294 162.113 94.405 162.734 94.405C163.345 94.405 163.871 94.294 164.31 94.072C164.75 93.8414 165.108 93.5255 165.385 93.1242C165.672 92.7229 165.882 92.2576 166.016 91.7282C166.15 91.1989 166.216 90.6311 166.216 90.0248V89.7559C166.216 89.1582 166.15 88.599 166.016 88.0781C165.882 87.5488 165.672 87.0834 165.385 86.6821C165.108 86.2723 164.745 85.9521 164.296 85.7216C163.857 85.4825 163.326 85.363 162.705 85.363C162.094 85.363 161.568 85.4825 161.129 85.7216C160.689 85.9521 160.331 86.2723 160.054 86.6821C159.777 87.0834 159.571 87.5488 159.438 88.0781C159.304 88.599 159.237 89.1582 159.237 89.7559Z" fill="#123DC8"/>
</svg>
