<svg width="75" height="75" viewBox="0 0 75 75" fill="none" xmlns="http://www.w3.org/2000/svg">
<path d="M65.0801 31.0107L41.6426 7.57321C40.5438 6.47475 39.0537 5.85767 37.5 5.85767C35.9463 5.85767 34.4562 6.47475 33.3574 7.57321L9.91995 31.0107C9.37364 31.5537 8.94058 32.1997 8.64587 32.9113C8.35116 33.6229 8.20068 34.386 8.20315 35.1562V63.2812C8.20315 64.2136 8.57355 65.1078 9.23286 65.7671C9.89217 66.4264 10.7864 66.7968 11.7188 66.7968H30.4688C31.4012 66.7968 32.2954 66.4264 32.9547 65.7671C33.614 65.1078 33.9844 64.2136 33.9844 63.2812V48.0468H41.0157V63.2812C41.0157 64.2136 41.3861 65.1078 42.0454 65.7671C42.7047 66.4264 43.5989 66.7968 44.5313 66.7968H63.2813C64.2137 66.7968 65.1079 66.4264 65.7672 65.7671C66.4265 65.1078 66.7969 64.2136 66.7969 63.2812V35.1562C66.7994 34.386 66.6489 33.6229 66.3542 32.9113C66.0595 32.1997 65.6264 31.5537 65.0801 31.0107ZM59.7657 59.7656H48.0469V44.5312C48.0469 43.5988 47.6765 42.7046 47.0172 42.0453C46.3579 41.386 45.4637 41.0156 44.5313 41.0156H30.4688C29.5364 41.0156 28.6422 41.386 27.9829 42.0453C27.3235 42.7046 26.9532 43.5988 26.9532 44.5312V59.7656H15.2344V35.6396L37.5 13.374L59.7657 35.6396V59.7656Z" fill="#D9D9D9"/>
</svg>
