<svg width="75" height="100" viewBox="0 0 75 100" fill="none" xmlns="http://www.w3.org/2000/svg">
<path d="M65.0801 31.0107L41.6426 7.57321C40.5438 6.47475 39.0537 5.85767 37.5 5.85767C35.9463 5.85767 34.4562 6.47475 33.3574 7.57321L9.91995 31.0107C9.37364 31.5537 8.94058 32.1997 8.64587 32.9113C8.35116 33.6229 8.20068 34.386 8.20315 35.1562V63.2812C8.20315 64.2136 8.57355 65.1078 9.23286 65.7671C9.89217 66.4264 10.7864 66.7968 11.7188 66.7968H30.4688C31.4012 66.7968 32.2954 66.4264 32.9547 65.7671C33.614 65.1078 33.9844 64.2136 33.9844 63.2812V48.0468H41.0157V63.2812C41.0157 64.2136 41.3861 65.1078 42.0454 65.7671C42.7047 66.4264 43.5989 66.7968 44.5313 66.7968H63.2813C64.2137 66.7968 65.1079 66.4264 65.7672 65.7671C66.4265 65.1078 66.7969 64.2136 66.7969 63.2812V35.1562C66.7994 34.386 66.6489 33.6229 66.3542 32.9113C66.0595 32.1997 65.6264 31.5537 65.0801 31.0107ZM59.7657 59.7656H48.0469V44.5312C48.0469 43.5988 47.6765 42.7046 47.0172 42.0453C46.3579 41.386 45.4637 41.0156 44.5313 41.0156H30.4688C29.5364 41.0156 28.6422 41.386 27.9829 42.0453C27.3235 42.7046 26.9532 43.5988 26.9532 44.5312V59.7656H15.2344V35.6396L37.5 13.374L59.7657 35.6396V59.7656Z" fill="#035E7B"/>
<path d="M59.7657 59.7656H48.0469V44.5312C48.0469 43.5988 47.6765 42.7046 47.0172 42.0453C46.3579 41.386 45.4637 41.0156 44.5313 41.0156H30.4688C29.5364 41.0156 28.6422 41.386 27.9829 42.0453C27.3235 42.7046 26.9532 43.5988 26.9532 44.5312V59.7656H15.2344V35.6396L37.5 13.374L59.7657 35.6396V59.7656Z" fill="#035E7B"/>
<path d="M13.6827 84.9764V88.635H2.83286V84.9764H13.6827ZM3.89518 74.7969V99.4581H0V74.7969H3.89518ZM16.5722 74.7969V99.4581H12.6771V74.7969H16.5722Z" fill="#035E7B"/>
<path d="M19.5892 90.4812V90.1255C19.5892 88.7817 19.7498 87.5453 20.0708 86.4161C20.3919 85.2756 20.8593 84.2876 21.4731 83.452C22.0869 82.6164 22.8376 81.9672 23.7252 81.5042C24.6128 81.0299 25.6232 80.7928 26.7564 80.7928C27.9084 80.7928 28.9282 81.0299 29.8159 81.5042C30.7129 81.9672 31.4684 82.6164 32.0822 83.452C32.6959 84.2876 33.1634 85.2756 33.4844 86.4161C33.8055 87.5453 33.966 88.7817 33.966 90.1255V90.4812C33.966 91.8136 33.8055 93.05 33.4844 94.1905C33.1634 95.3197 32.6959 96.3077 32.0822 97.1546C31.4684 97.9902 30.7177 98.6395 29.83 99.1024C28.9424 99.5654 27.9273 99.7969 26.7847 99.7969C25.6516 99.7969 24.6364 99.5654 23.7394 99.1024C22.8423 98.6395 22.0869 97.9902 21.4731 97.1546C20.8593 96.3077 20.3919 95.3197 20.0708 94.1905C19.7498 93.05 19.5892 91.8136 19.5892 90.4812ZM23.3286 90.1255V90.4812C23.3286 91.2829 23.3947 92.0338 23.5269 92.7339C23.6591 93.434 23.8621 94.0494 24.136 94.5801C24.4098 95.1108 24.7639 95.5286 25.1983 95.8335C25.6421 96.127 26.1709 96.2738 26.7847 96.2738C27.389 96.2738 27.9084 96.127 28.3428 95.8335C28.7771 95.5286 29.1313 95.1108 29.4051 94.5801C29.6884 94.0494 29.8961 93.434 30.0283 92.7339C30.1605 92.0338 30.2266 91.2829 30.2266 90.4812V90.1255C30.2266 89.335 30.1605 88.5954 30.0283 87.9066C29.8961 87.2065 29.6884 86.5911 29.4051 86.0604C29.1313 85.5184 28.7724 85.095 28.3286 84.7901C27.8942 84.4739 27.3702 84.3158 26.7564 84.3158C26.152 84.3158 25.6327 84.4739 25.1983 84.7901C24.7639 85.095 24.4098 85.5184 24.136 86.0604C23.8621 86.5911 23.6591 87.2065 23.5269 87.9066C23.3947 88.5954 23.3286 89.335 23.3286 90.1255Z" fill="#035E7B"/>
<path d="M40.4108 84.8917V99.4581H36.6714V81.1316H40.1983L40.4108 84.8917ZM39.8584 89.6343H38.711C38.711 88.3583 38.8385 87.184 39.0935 86.1112C39.3579 85.0385 39.745 84.1069 40.255 83.3165C40.7649 82.5148 41.3928 81.8938 42.1388 81.4534C42.8942 81.013 43.7677 80.7928 44.7592 80.7928C45.4485 80.7928 46.0812 80.917 46.6572 81.1654C47.2332 81.4026 47.729 81.7808 48.1445 82.3003C48.5694 82.8084 48.8952 83.4746 49.1218 84.2989C49.3484 85.1119 49.4618 86.0887 49.4618 87.2291V99.4581H45.7224V87.6864C45.7224 86.8283 45.6185 86.1564 45.4108 85.6709C45.2125 85.1853 44.9245 84.8466 44.5467 84.6546C44.169 84.4513 43.7158 84.3497 43.187 84.3497C42.6015 84.3497 42.0963 84.4909 41.6714 84.7732C41.2559 85.0442 40.9112 85.4224 40.6374 85.908C40.373 86.3935 40.1747 86.9525 40.0425 87.5848C39.9197 88.2172 39.8584 88.9003 39.8584 89.6343ZM49.1785 88.8043L47.6346 89.1431C47.644 87.9913 47.7762 86.913 48.0312 85.908C48.2861 84.8917 48.6591 84.0053 49.1501 83.2488C49.6506 82.4809 50.2691 81.8825 51.0057 81.4534C51.7517 81.013 52.611 80.7928 53.5836 80.7928C54.339 80.7928 55.0189 80.9227 55.6232 81.1824C56.237 81.4308 56.7611 81.8317 57.1955 82.385C57.6298 82.927 57.9603 83.6327 58.187 84.5022C58.423 85.3716 58.5411 86.4331 58.5411 87.6864V99.4581H54.7734V87.6695C54.7734 86.7775 54.6695 86.0943 54.4618 85.62C54.2635 85.1458 53.9754 84.8183 53.5977 84.6377C53.22 84.4457 52.7762 84.3497 52.2663 84.3497C51.7469 84.3497 51.2937 84.4683 50.9065 84.7054C50.5288 84.9312 50.2077 85.2474 49.9433 85.6539C49.6884 86.0604 49.4948 86.5347 49.3626 87.0767C49.2398 87.6074 49.1785 88.1833 49.1785 88.8043Z" fill="#035E7B"/>
<path d="M68.7819 99.7969C67.6204 99.7969 66.577 99.571 65.6516 99.1194C64.7262 98.6677 63.9377 98.041 63.2861 97.2393C62.644 96.4263 62.1483 95.4834 61.7989 94.4107C61.4589 93.3267 61.289 92.1636 61.289 90.9215V90.244C61.289 88.8326 61.4589 87.5509 61.7989 86.3992C62.1388 85.2361 62.6204 84.2368 63.2436 83.4012C63.8669 82.5656 64.6128 81.922 65.4816 81.4703C66.3503 81.0186 67.3088 80.7928 68.3569 80.7928C69.4429 80.7928 70.4013 81.013 71.2323 81.4534C72.0633 81.8825 72.7573 82.4922 73.3144 83.2826C73.8716 84.0731 74.2918 85.0216 74.5751 86.1282C74.8584 87.2235 75 88.4373 75 89.7698V91.6499H62.9887V88.5672H71.3173V88.2284C71.2984 87.5171 71.1851 86.8678 70.9773 86.2806C70.7696 85.6822 70.4485 85.2079 70.0142 84.8579C69.5798 84.4965 69.0179 84.3158 68.3286 84.3158C67.7715 84.3158 67.2852 84.4626 66.8697 84.7562C66.4636 85.0385 66.1237 85.445 65.8499 85.9757C65.5855 86.4952 65.3872 87.1162 65.255 87.8389C65.1228 88.5616 65.0567 89.3633 65.0567 90.244V90.9215C65.0567 91.6894 65.1416 92.4008 65.3116 93.0557C65.491 93.7106 65.7507 94.2808 66.0907 94.7664C66.44 95.2406 66.8555 95.6133 67.3371 95.8843C67.8281 96.144 68.3853 96.2738 69.0085 96.2738C69.7923 96.2738 70.5005 96.0932 71.1331 95.7318C71.7753 95.3592 72.3324 94.8116 72.8045 94.0889L74.6884 96.4263C74.3673 96.9909 73.933 97.5329 73.3853 98.0523C72.847 98.5717 72.1955 98.9952 71.4306 99.3226C70.6657 99.6388 69.7828 99.7969 68.7819 99.7969Z" fill="#035E7B"/>
</svg>
