<svg width="61" height="61" viewBox="0 0 61 61" fill="none" xmlns="http://www.w3.org/2000/svg">
<path d="M59.2207 14.8098L46.1309 1.71701C45.5868 1.17267 44.9407 0.740855 44.2297 0.446245C43.5186 0.151636 42.7565 0 41.9868 0C41.2172 0 40.4551 0.151636 39.744 0.446245C39.033 0.740855 38.3869 1.17267 37.8428 1.71701L1.71682 37.8459C1.17073 38.3884 0.737784 39.034 0.443079 39.7451C0.148374 40.4562 -0.0022216 41.2187 2.47652e-05 41.9885V55.0813C2.47652e-05 56.6353 0.61735 58.1256 1.7162 59.2245C2.81504 60.3233 4.3054 60.9406 5.8594 60.9406H18.9522C19.7219 60.9427 20.4844 60.7921 21.1955 60.4974C21.9066 60.2027 22.5521 59.7698 23.0947 59.2239L59.2207 23.0949C60.3192 21.9961 60.9363 20.5061 60.9363 18.9524C60.9363 17.3987 60.3192 15.9086 59.2207 14.8098ZM18.4571 53.9094H7.03127V42.4836L31.6406 17.8742L43.0664 29.3L18.4571 53.9094ZM48.0469 24.3196L36.6211 12.8938L41.9942 7.52072L53.4199 18.9465L48.0469 24.3196Z" fill="white"/>
</svg>
