<svg width="276" height="238" viewBox="0 0 276 238" fill="none" xmlns="http://www.w3.org/2000/svg">
<path d="M56.3025 94.2408V66.7239C56.3025 64.5658 55.9439 63.1869 55.2266 62.5874C54.6289 61.868 53.2542 61.5083 51.1026 61.5083H37.8338C32.096 61.5083 27.9122 60.1295 25.2823 57.3718C22.772 54.6141 21.5169 50.6574 21.5169 45.5018V15.8267C21.5169 10.671 22.8318 6.77431 25.4616 4.13652C28.211 1.37884 32.4546 0 38.1924 0H55.7645C61.6219 0 65.8655 1.37884 68.4954 4.13652C71.1252 6.77431 72.4401 10.671 72.4401 15.8267V32.3728H56.1232V18.3446C56.1232 16.1864 55.7645 14.8076 55.0473 14.2081C54.4496 13.4887 53.0152 13.129 50.7439 13.129H43.213C41.0614 13.129 39.6269 13.4887 38.9097 14.2081C38.1924 14.8076 37.8338 16.1864 37.8338 18.3446V43.3436C37.8338 45.3819 38.1924 46.7607 38.9097 47.4801C39.6269 48.1995 41.0614 48.5592 43.213 48.5592H56.3025C62.0403 48.5592 66.2241 49.938 68.854 52.6957C71.4838 55.3335 72.7987 59.2302 72.7987 64.3859V96.7587C72.7987 101.914 71.424 105.871 68.6747 108.629C66.0448 111.267 61.861 112.585 56.1232 112.585H38.5511C32.8132 112.585 28.5696 111.267 25.8202 108.629C23.1904 105.871 21.8755 101.914 21.8755 96.7587V80.2126H38.1924V94.2408C38.1924 96.2791 38.5511 97.6579 39.2683 98.3773C39.9855 99.0967 41.42 99.4564 43.5717 99.4564H51.1026C53.2542 99.4564 54.6289 99.0967 55.2266 98.3773C55.9439 97.6579 56.3025 96.2791 56.3025 94.2408Z" fill="white"/>
<path d="M209.613 0H248.523C254.38 0 258.624 1.37885 261.254 4.13653C264.003 6.77431 265.378 10.671 265.378 15.8267V44.4227C265.378 47.4202 264.78 49.8781 263.585 51.7965C262.389 53.7149 260.596 54.9738 258.206 55.5733C260.596 56.1728 262.389 57.3118 263.585 58.9904C264.78 60.669 265.378 63.007 265.378 66.0045V96.7587C265.378 101.914 264.003 105.871 261.254 108.629C258.624 111.267 254.38 112.585 248.523 112.585H209.613V0ZM249.061 94.6005V66.9038C249.061 64.7456 248.702 63.3668 247.985 62.7673C247.387 62.0479 245.953 61.6882 243.682 61.6882H225.93V99.8161H243.682C245.953 99.8161 247.387 99.4564 247.985 98.737C248.702 98.0176 249.061 96.6388 249.061 94.6005ZM249.061 43.7033V17.9849C249.061 15.8267 248.702 14.4479 247.985 13.8484C247.387 13.129 245.953 12.7693 243.682 12.7693H225.93V48.9189H243.682C245.953 48.9189 247.387 48.5592 247.985 47.8398C248.702 47.1204 249.061 45.7416 249.061 43.7033Z" fill="white"/>
<path fill-rule="evenodd" clip-rule="evenodd" d="M174.29 225.231L173.646 139.862H191.397C193.549 139.862 194.984 140.222 195.701 140.942C196.418 141.541 196.777 142.92 196.777 145.078V169.178L197.421 220.015C197.421 222.053 197.062 223.432 196.345 224.152C195.628 224.871 194.193 225.231 192.041 225.231H174.29ZM197.062 238C202.8 238 206.984 236.681 209.613 234.043C212.363 231.286 213.738 227.329 213.738 222.173L213.094 169.178V142.92C213.094 137.764 211.719 133.867 208.97 131.23C206.34 128.472 202.156 127.093 196.418 127.093H157.329L157.973 238H197.062Z" fill="white"/>
<path d="M41.8981 137.824H66.9852V124.695H0V137.824H25.7605V237.281H41.8981V137.824Z" fill="white"/>
<path fill-rule="evenodd" clip-rule="evenodd" d="M275.988 222.987C275.973 223.526 275.941 224.05 275.894 224.561V229.547L275.988 222.987ZM275.988 222.987C275.996 222.719 276 222.448 276 222.173L275.988 222.987Z" fill="white"/>
<path fill-rule="evenodd" clip-rule="evenodd" d="M127.87 116.122L121.583 86.5074H95.3741L90.953 116.122L91.1472 218.936C91.1472 220.974 91.5058 222.353 92.223 223.073C92.9402 223.792 110.119 224.152 112.271 224.152H122.67C124.822 224.152 126.197 223.792 126.795 223.073C127.512 222.353 127.87 220.974 127.87 218.936V116.122ZM94.5392 0.000128066L74.6361 116.122L74.8302 221.454C74.8302 226.61 76.1451 230.566 78.775 233.324C81.5244 235.962 85.8277 237.281 91.6851 237.281H127.332C133.19 237.281 137.433 235.962 140.063 233.324C142.813 230.566 144.187 226.61 144.187 221.454V116.122L118.028 0.000128066H94.5392ZM118.795 73.3785L106.194 14.0283L97.3341 73.3785H118.795Z" fill="white"/>
<path d="M157.329 1.60083e-05H148.722V112.585H157.329H165.039H197.494V99.4564H165.039V60.9688H196.239V47.8398H165.039V13.129H196.239V1.60083e-05H165.039H157.329Z" fill="white"/>
<path d="M221.743 142.92L222.281 220.735V229.727L222.387 222.173C222.387 227.329 223.702 231.286 226.332 234.043C229.081 236.681 233.385 238 239.242 238H259.145C265.002 238 269.246 236.681 271.876 234.043C274.184 231.728 275.524 228.567 275.894 224.561V221.993L275.356 142.92C275.356 137.764 273.981 133.867 271.232 131.23C268.602 128.472 264.359 127.093 258.501 127.093H238.598C232.741 127.093 228.437 128.472 225.688 131.23C223.058 133.867 221.743 137.764 221.743 142.92ZM238.598 220.735L238.06 145.438C238.06 143.28 238.419 141.901 239.136 141.301C239.853 140.582 241.288 140.222 243.439 140.222H253.66C255.931 140.222 257.366 140.582 257.963 141.301C258.681 141.901 259.039 143.28 259.039 145.438L259.573 221.41C259.417 222.509 259.095 223.303 258.607 223.792C258.009 224.511 256.575 224.871 254.304 224.871H244.083C241.932 224.871 240.497 224.511 239.78 223.792C239.063 223.073 238.704 221.694 238.704 219.655L238.598 229.727V220.735Z" fill="white"/>
</svg>
