<svg width="412" height="917" viewBox="0 0 412 917" fill="none" xmlns="http://www.w3.org/2000/svg">
<g clip-path="url(#clip0_440_429)">
<path d="M404.096 438.848C402.974 439.04 401.832 439.246 400.671 439.467C359.247 447.323 293.937 472.477 283.418 483.632C283.937 483.754 284.426 483.962 284.868 484.242C286.025 484.974 286.857 486.198 287.041 487.662L306.789 644.635C341.69 624.575 364.727 613.63 424.982 604.867L404.096 438.848Z" fill="#F93C6F"/>
<path d="M141.917 471.454C140.556 471.537 139.222 471.63 137.92 471.735L158.805 637.755C219.353 631.32 244.383 636.218 283.166 647.009L263.492 490.624C263.305 489.136 263.828 487.722 264.798 486.723C265.265 486.242 265.835 485.857 266.479 485.607C255.136 477.316 184.689 468.867 141.917 471.454Z" fill="#F93C6F"/>
<path d="M141.917 471.454C184.689 468.867 255.136 477.316 266.479 485.607C266.835 485.469 267.213 485.372 267.609 485.322L281.739 483.544C282.316 483.472 282.883 483.506 283.418 483.632C293.937 472.477 359.247 447.323 400.671 439.467L394.784 432.364C391.859 432.923 389.01 433.472 386.231 434.016C339.925 443.069 312.755 450.471 273.948 474.018C227.082 459.9 200.017 455.185 154.135 457.931C152.496 458.029 150.834 458.137 149.145 458.254L141.917 471.454Z" fill="white"/>
<path d="M273.948 474.018C312.755 450.471 339.925 443.069 386.231 434.016L386.539 429.862C335.579 439.731 307.991 447.481 273.948 474.018Z" fill="#D9D9D9"/>
<path d="M154.135 457.931C200.017 455.185 227.082 459.9 273.948 474.018C225.179 451.796 196.199 448.986 153.29 454.301L154.135 457.931Z" fill="#D9D9D9"/>
<path d="M283.418 483.632C282.883 483.506 282.316 483.472 281.739 483.544L267.609 485.322C267.213 485.372 266.835 485.469 266.479 485.607C265.835 485.857 265.265 486.242 264.798 486.723C263.828 487.722 263.305 489.136 263.492 490.624L283.166 647.009L283.489 649.579C283.816 652.18 286.19 654.024 288.791 653.697L302.921 651.919C305.522 651.592 307.365 649.218 307.038 646.617L306.789 644.635L287.041 487.662C286.857 486.198 286.025 484.974 284.868 484.242C284.426 483.962 283.937 483.754 283.418 483.632Z" fill="#D52756"/>
<path fill-rule="evenodd" clip-rule="evenodd" d="M58.2241 86.1697C57.9507 86.0676 57.6741 85.9902 57.3968 85.9365L55.0963 92.0939C54.7234 93.0918 55.2295 94.2028 56.2266 94.5753C57.2236 94.9479 58.3342 94.4409 58.707 93.4429L61.0325 87.219L58.2241 86.1697ZM68.6551 90.067L65.0444 88.7179L61.0687 99.3589C60.6958 100.357 61.2019 101.468 62.1989 101.84C63.196 102.213 64.3066 101.706 64.6794 100.708L68.6551 90.067ZM75.4754 92.6152L72.6671 91.5659L70.3416 97.7899C69.9688 98.7878 70.4748 99.8988 71.4719 100.271C72.469 100.644 73.5795 100.137 73.9524 99.1389L76.2529 92.9816C76.0083 92.8403 75.7488 92.7173 75.4754 92.6152Z" fill="#D9D9D9"/>
<path d="M57.4217 85.8699L61.0325 87.219L58.707 93.4429C58.3342 94.4409 57.2236 94.9479 56.2266 94.5753C55.2295 94.2028 54.7234 93.0918 55.0963 92.0939L57.3968 85.9365L57.4217 85.8699Z" fill="#F93C6F"/>
<path d="M65.0444 88.7179L68.6551 90.067L64.6794 100.708C64.3066 101.706 63.196 102.213 62.1989 101.84C61.2019 101.468 60.6958 100.357 61.0687 99.3589L65.0444 88.7179Z" fill="#F93C6F"/>
<path d="M72.6671 91.5659L76.2778 92.915L76.2529 92.9816L73.9524 99.1389C73.5795 100.137 72.469 100.644 71.4719 100.271C70.4748 99.8988 69.9688 98.7878 70.3416 97.7899L72.6671 91.5659Z" fill="#F93C6F"/>
<path d="M46.8221 116.687L48.4268 117.287L62.0674 122.383L64.0734 123.133C66.7323 124.126 69.6937 122.774 70.688 120.113L78.4894 99.2325C79.3815 96.8449 78.387 94.2147 76.2529 92.9816L73.9524 99.1389C73.5795 100.137 72.469 100.644 71.4719 100.271C70.4748 99.8988 69.9688 98.7878 70.3416 97.7899L72.6671 91.5659L68.6551 90.067L64.6794 100.708C64.3066 101.706 63.196 102.213 62.1989 101.84C61.2019 101.468 60.6958 100.357 61.0687 99.3589L65.0444 88.7179L61.0325 87.219L58.707 93.4429C58.3342 94.4409 57.2236 94.9479 56.2266 94.5753C55.2295 94.2028 54.7234 93.0918 55.0963 92.0939L57.3968 85.9365C54.977 85.4681 52.5015 86.8019 51.6095 89.1895L43.8081 110.07C42.8138 112.731 44.1632 115.694 46.8221 116.687Z" fill="#CBE940"/>
<path fill-rule="evenodd" clip-rule="evenodd" d="M55.0232 182.389C50.6027 184.799 45.5682 186.044 40.4288 185.891L40.4142 187.558L40.0062 234.031L39.9341 242.241L38.7293 379.473L45.8998 392.153L53.2919 379.593L54.4501 247.665L54.5222 239.455L55.0068 184.259L55.0232 182.389Z" fill="#B546FF"/>
<path fill-rule="evenodd" clip-rule="evenodd" d="M22.8202 179.175C18.8733 175.856 15.9365 171.555 14.245 166.788L12.821 168.457L-23.0319 210.479L-28.3608 216.725L-113.96 317.052L-116.615 331.382L-102.886 326.511L-13.8448 222.148L-8.51587 215.903L21.6597 180.535L22.8202 179.175Z" fill="#B546FF"/>
<path d="M19.9521 226.539L21.4523 222.523C21.9495 221.193 21.2748 219.711 19.9453 219.215L17.137 218.165C15.8075 217.669 14.3268 218.345 13.8297 219.675L12.3294 223.691L9.62891 230.919L8.27866 234.533C7.78152 235.863 8.45623 237.344 9.78566 237.841L12.594 238.89C13.9235 239.387 15.4042 238.711 15.9013 237.381L17.2516 233.767L19.9521 226.539Z" fill="#CBE940"/>
<path d="M39.9341 242.241L40.0062 234.031L38.8081 233.584L38.5148 241.711L39.9341 242.241Z" fill="black"/>
<path d="M54.5222 239.455L54.4501 247.665L55.5655 248.082L55.6582 239.879L54.5222 239.455Z" fill="black"/>
<path d="M-8.51587 215.903L-13.8448 222.148L-12.6374 222.599L-7.32911 216.346L-8.51587 215.903Z" fill="black"/>
<path fill-rule="evenodd" clip-rule="evenodd" d="M12.3294 223.691L-7.32911 216.346L-12.6374 222.599L9.62891 230.919L12.3294 223.691ZM17.2516 233.767L38.5148 241.711L38.8081 233.584L19.9521 226.539L17.2516 233.767ZM-45.4425 202.106L-24.1792 210.05L-29.4875 216.304L-48.1429 209.334C-50.1371 208.589 -51.1492 206.367 -50.4034 204.371C-49.6577 202.375 -47.4366 201.361 -45.4425 202.106ZM55.5655 248.082L74.6222 255.202C76.6164 255.947 78.8375 254.933 79.5832 252.937C80.3289 250.941 79.3169 248.719 77.3227 247.974L55.6582 239.879L55.5655 248.082Z" fill="#B546FF"/>
<path d="M-28.3608 216.725L-23.0319 210.479L-24.1792 210.05L-29.4875 216.304L-28.3608 216.725Z" fill="black"/>
<path fill-rule="evenodd" clip-rule="evenodd" d="M57.8403 133.697L58.5959 131.675L61.6173 123.588L47.9768 118.491L44.9867 126.494L44.1997 128.601C46.5908 128.844 48.9899 129.395 51.3464 130.275C53.703 131.156 55.8753 132.313 57.8403 133.697Z" fill="#B546FF"/>
<path d="M62.0674 122.383L48.4268 117.287L47.9768 118.491L61.6173 123.588L62.0674 122.383Z" fill="black"/>
<path fill-rule="evenodd" clip-rule="evenodd" d="M57.8403 133.697L58.5959 131.675C56.5674 130.277 54.3363 129.104 51.9244 128.203C49.6358 127.348 47.3097 126.785 44.9867 126.494L44.1997 128.601C46.5908 128.844 48.9899 129.395 51.3464 130.275C53.703 131.156 55.8753 132.313 57.8403 133.697ZM12.821 168.457L14.245 166.788C15.9365 171.555 18.8733 175.856 22.8202 179.175L21.6597 180.535C17.7194 177.273 14.7062 173.1 12.821 168.457ZM40.4142 187.558L40.4288 185.891C45.5682 186.044 50.6027 184.799 55.0232 182.389L55.0068 184.259C50.5376 186.52 45.5266 187.686 40.4142 187.558Z" fill="black"/>
<path fill-rule="evenodd" clip-rule="evenodd" d="M57.8403 133.697C55.8753 132.313 53.703 131.156 51.3464 130.275C48.9899 129.395 46.5908 128.844 44.1997 128.601C31.5283 127.309 19.0849 134.636 14.4147 147.136C11.9531 153.724 12.0644 160.643 14.245 166.788C15.9365 171.555 18.8733 175.856 22.8202 179.175C25.2602 181.226 28.0863 182.903 31.2429 184.082C34.2704 185.213 37.3682 185.8 40.4288 185.891C45.5682 186.044 50.6027 184.799 55.0232 182.389C60.8784 179.197 65.6564 173.961 68.1746 167.222C72.8448 154.722 68.2541 141.031 57.8403 133.697ZM49.4467 135.972C51.5466 136.756 53.4598 137.822 55.1597 139.109C62.8766 144.955 66.1977 155.381 62.6329 164.922C58.2829 176.565 45.3264 182.48 33.6939 178.134C22.0613 173.788 16.1576 160.826 20.5076 149.183C24.0247 139.77 33.1681 134.101 42.689 134.572C44.9436 134.684 47.2194 135.14 49.4467 135.972Z" fill="#CBE940"/>
<path d="M48.0458 139.109C49.229 139.551 50.343 140.097 51.3813 140.733C59.0938 145.455 62.6345 155.129 59.3483 163.924C55.6198 173.903 44.5142 178.974 34.5434 175.248C24.5727 171.523 19.5124 160.413 23.2409 150.433C26.5271 141.638 35.5434 136.656 44.4628 138.148C45.6636 138.349 46.8627 138.667 48.0458 139.109Z" fill="#CBE940"/>
<path fill-rule="evenodd" clip-rule="evenodd" d="M55.1597 139.109C53.4598 137.822 51.5466 136.756 49.4467 135.972C47.2194 135.14 44.9436 134.684 42.689 134.572C33.1681 134.101 24.0247 139.77 20.5076 149.183C16.1576 160.826 22.0613 173.788 33.6939 178.134C45.3264 182.48 58.2829 176.565 62.6329 164.922C66.1977 155.381 62.8766 144.955 55.1597 139.109ZM51.3813 140.733C50.343 140.097 49.229 139.551 48.0458 139.109C46.8627 138.667 45.6636 138.349 44.4628 138.148C35.5434 136.656 26.5271 141.638 23.2409 150.433C19.5124 160.413 24.5727 171.523 34.5434 175.248C44.5142 178.974 55.6198 173.903 59.3483 163.924C62.6345 155.129 59.0938 145.455 51.3813 140.733Z" fill="#F93C6F"/>
<g filter="url(#filter0_d_440_429)">
<path d="M134.571 250.154V225.874C134.571 223.97 134.255 222.753 133.623 222.224C133.097 221.589 131.887 221.272 129.992 221.272H118.31C113.258 221.272 109.575 220.055 107.259 217.622C105.049 215.189 103.944 211.698 103.944 207.149V180.965C103.944 176.416 105.102 172.977 107.417 170.65C109.838 168.217 113.574 167 118.626 167H134.097C139.254 167 142.99 168.217 145.306 170.65C147.621 172.977 148.779 176.416 148.779 180.965V195.564H134.413V183.186C134.413 181.282 134.097 180.065 133.466 179.537C132.939 178.902 131.676 178.584 129.677 178.584H123.046C121.152 178.584 119.889 178.902 119.257 179.537C118.626 180.065 118.31 181.282 118.31 183.186V205.244C118.31 207.043 118.626 208.259 119.257 208.894C119.889 209.529 121.152 209.846 123.046 209.846H134.571C139.622 209.846 143.306 211.063 145.621 213.496C147.937 215.824 149.095 219.262 149.095 223.811V252.375C149.095 256.924 147.884 260.416 145.464 262.849C143.148 265.176 139.465 266.34 134.413 266.34H118.942C113.89 266.34 110.154 265.176 107.733 262.849C105.418 260.416 104.26 256.924 104.26 252.375V237.776H118.626V250.154C118.626 251.952 118.942 253.169 119.573 253.804C120.205 254.438 121.468 254.756 123.362 254.756H129.992C131.887 254.756 133.097 254.438 133.623 253.804C134.255 253.169 134.571 251.952 134.571 250.154Z" fill="white"/>
<path d="M269.551 167H303.808C308.965 167 312.702 168.217 315.017 170.65C317.438 172.977 318.648 176.416 318.648 180.965V206.196C318.648 208.841 318.122 211.01 317.069 212.703C316.017 214.395 314.438 215.506 312.333 216.035C314.438 216.564 316.017 217.569 317.069 219.05C318.122 220.531 318.648 222.594 318.648 225.239V252.375C318.648 256.924 317.438 260.416 315.017 262.849C312.702 265.176 308.965 266.34 303.808 266.34H269.551V167ZM304.282 250.471V226.033C304.282 224.128 303.966 222.912 303.335 222.383C302.809 221.748 301.546 221.431 299.546 221.431H283.917V255.073H299.546C301.546 255.073 302.809 254.756 303.335 254.121C303.966 253.486 304.282 252.27 304.282 250.471ZM304.282 205.562V182.869C304.282 180.965 303.966 179.748 303.335 179.219C302.809 178.584 301.546 178.267 299.546 178.267H283.917V210.164H299.546C301.546 210.164 302.809 209.846 303.335 209.212C303.966 208.577 304.282 207.36 304.282 205.562Z" fill="white"/>
<path fill-rule="evenodd" clip-rule="evenodd" d="M238.451 365.733L237.884 290.408H253.513C255.407 290.408 256.67 290.725 257.302 291.36C257.933 291.889 258.249 293.106 258.249 295.01V316.275L258.816 361.131C258.816 362.929 258.5 364.146 257.869 364.781C257.237 365.416 255.974 365.733 254.08 365.733H238.451ZM258.5 377C263.552 377 267.236 375.836 269.551 373.509C271.972 371.076 273.182 367.584 273.182 363.035L272.615 316.275V293.106C272.615 288.557 271.405 285.118 268.984 282.791C266.669 280.358 262.985 279.141 257.933 279.141H223.518L224.085 377H258.5Z" fill="white"/>
<path d="M121.889 288.61H143.976V277.025H85V288.61H107.68V376.365H121.889V288.61Z" fill="white"/>
<path fill-rule="evenodd" clip-rule="evenodd" d="M327.99 363.753C327.976 364.229 327.948 364.692 327.907 365.142V369.542L327.99 363.753ZM327.99 363.753C327.997 363.517 328 363.278 328 363.035L327.99 363.753Z" fill="white"/>
<path fill-rule="evenodd" clip-rule="evenodd" d="M197.582 269.461L192.046 243.33H168.971L165.078 269.461L165.249 360.179C165.249 361.977 165.565 363.194 166.196 363.829C166.828 364.463 181.953 364.781 183.847 364.781H193.003C194.898 364.781 196.108 364.463 196.634 363.829C197.266 363.194 197.582 361.977 197.582 360.179V269.461ZM168.236 167L150.712 269.461L150.883 362.401C150.883 366.95 152.041 370.441 154.356 372.874C156.777 375.202 160.566 376.365 165.723 376.365H197.108C202.265 376.365 206.001 375.202 208.317 372.874C210.737 370.441 211.948 366.95 211.948 362.401V269.461L188.916 167H168.236ZM189.591 231.746L178.497 179.378L170.696 231.746H189.591Z" fill="white"/>
<path d="M223.518 167H215.94V266.34H223.518H230.306H258.88V254.756H230.306V220.796H257.775V209.212H230.306V178.584H257.775V167H230.306H223.518Z" fill="white"/>
<path d="M280.23 293.106L280.704 361.766V369.7L280.797 363.035C280.797 367.584 281.955 371.076 284.27 373.509C286.691 375.836 290.48 377 295.637 377H313.16C318.317 377 322.054 375.836 324.369 373.509C326.401 371.466 327.581 368.677 327.907 365.142V362.877L327.433 293.106C327.433 288.557 326.223 285.118 323.802 282.791C321.487 280.358 317.75 279.141 312.593 279.141H295.07C289.913 279.141 286.124 280.358 283.704 282.791C281.388 285.118 280.23 288.557 280.23 293.106ZM295.07 361.766L294.596 295.327C294.596 293.423 294.912 292.207 295.544 291.678C296.175 291.043 297.438 290.725 299.333 290.725H308.331C310.331 290.725 311.594 291.043 312.12 291.678C312.751 292.207 313.067 293.423 313.067 295.327L313.537 362.362C313.4 363.331 313.116 364.032 312.687 364.463C312.161 365.098 310.898 365.416 308.898 365.416H299.899C298.005 365.416 296.742 365.098 296.111 364.463C295.479 363.829 295.163 362.612 295.163 360.814L295.07 369.7V361.766Z" fill="white"/>
</g>
<g filter="url(#filter1_d_440_429)">
<path d="M316.038 414.211L334.737 385.151L340.366 386.025L349.417 419.394L343.436 418.466L335.887 388.48L338.173 388.835L321.931 415.126L316.038 414.211ZM323.536 407.978L325.782 403.669L342.405 406.251L343.238 411.038L323.536 407.978Z" fill="#BDD358"/>
<path d="M362.089 421.611C360.539 421.37 359.213 420.809 358.112 419.928C357.011 419.047 356.215 417.857 355.724 416.361C355.259 414.844 355.193 413.011 355.527 410.861C355.864 408.687 356.494 406.962 357.417 405.685C358.362 404.411 359.491 403.533 360.803 403.05C362.142 402.547 363.553 402.411 365.035 402.641C366.837 402.921 368.36 403.56 369.606 404.559C370.875 405.561 371.799 406.829 372.379 408.363C372.98 409.901 373.132 411.629 372.834 413.548C372.537 415.467 371.868 417.068 370.828 418.351C369.811 419.637 368.544 420.577 367.027 421.17C365.537 421.744 363.891 421.891 362.089 421.611ZM352.003 419.796L355.998 394.064L360.274 394.728L358.486 406.241L357.379 411.113L356.751 416.058L356.073 420.428L352.003 419.796ZM362.187 417.826C363.213 417.985 364.161 417.896 365.031 417.557C365.924 417.222 366.678 416.653 367.293 415.849C367.908 415.044 368.307 414.053 368.49 412.874C368.677 411.671 368.597 410.605 368.251 409.676C367.909 408.723 367.363 407.951 366.614 407.362C365.888 406.775 365.012 406.402 363.985 406.243C362.959 406.084 362 406.171 361.107 406.506C360.214 406.841 359.46 407.411 358.845 408.215C358.233 408.996 357.834 409.988 357.648 411.19C357.464 412.369 357.544 413.435 357.887 414.388C358.229 415.341 358.775 416.112 359.524 416.702C360.273 417.292 361.161 417.667 362.187 417.826Z" fill="#BDD358"/>
</g>
<path d="M401.082 309.378C398.456 310.037 395.794 308.442 395.135 305.816L342.193 94.7165C341.534 92.0907 343.129 89.4282 345.755 88.7696L360.018 85.1924C362.644 84.5339 365.307 86.1287 365.965 88.7545L418.908 299.854C419.566 302.48 417.971 305.143 415.346 305.801L401.082 309.378Z" fill="#FFD033"/>
<path d="M391.916 292.979L391.2 290.126L401.185 287.622C401.973 287.425 402.771 287.903 402.969 288.691C403.166 289.479 402.688 290.278 401.9 290.475L391.916 292.979Z" fill="#E63956"/>
<path d="M384.284 262.55L383.569 259.698L393.553 257.194C394.341 256.996 395.14 257.474 395.337 258.262C395.535 259.05 395.057 259.849 394.269 260.046L384.284 262.55Z" fill="#E63956"/>
<path d="M376.653 232.122L375.938 229.269L385.922 226.765C386.71 226.567 387.509 227.046 387.706 227.833C387.904 228.621 387.425 229.42 386.637 229.617L376.653 232.122Z" fill="#E63956"/>
<path d="M369.022 201.693L368.306 198.84L378.291 196.336C379.078 196.138 379.877 196.617 380.075 197.405C380.272 198.192 379.794 198.991 379.006 199.189L369.022 201.693Z" fill="#E63956"/>
<path d="M361.39 171.264L360.675 168.411L370.659 165.907C371.447 165.71 372.246 166.188 372.443 166.976C372.641 167.764 372.162 168.562 371.375 168.76L361.39 171.264Z" fill="#E63956"/>
<path d="M353.759 140.835L353.043 137.982L363.028 135.478C363.816 135.281 364.614 135.759 364.812 136.547C365.01 137.335 364.531 138.134 363.743 138.331L353.759 140.835Z" fill="#E63956"/>
<path d="M346.128 110.406L345.412 107.554L355.397 105.05C356.184 104.852 356.983 105.33 357.181 106.118C357.378 106.906 356.9 107.705 356.112 107.902L346.128 110.406Z" fill="#E63956"/>
<path d="M388.1 277.765L387.385 274.912L391.664 273.839C392.451 273.641 393.25 274.12 393.448 274.907C393.645 275.695 393.167 276.494 392.379 276.692L388.1 277.765Z" fill="#E63956"/>
<path d="M380.469 247.336L379.753 244.483L384.032 243.41C384.82 243.213 385.619 243.691 385.816 244.479C386.014 245.266 385.535 246.065 384.748 246.263L380.469 247.336Z" fill="#E63956"/>
<path d="M372.837 216.907L372.122 214.054L376.401 212.981C377.189 212.784 377.987 213.262 378.185 214.05C378.383 214.838 377.904 215.636 377.116 215.834L372.837 216.907Z" fill="#E63956"/>
<path d="M365.206 186.478L364.491 183.626L368.77 182.552C369.557 182.355 370.356 182.833 370.554 183.621C370.751 184.409 370.273 185.208 369.485 185.405L365.206 186.478Z" fill="#E63956"/>
<path d="M357.575 156.05L356.859 153.197L361.138 152.124C361.926 151.926 362.725 152.405 362.922 153.192C363.12 153.98 362.641 154.779 361.854 154.976L357.575 156.05Z" fill="#E63956"/>
<path d="M349.943 125.621L349.228 122.768L353.507 121.695C354.295 121.497 355.093 121.976 355.291 122.764C355.488 123.551 355.01 124.35 354.222 124.548L349.943 125.621Z" fill="#E63956"/>
<path d="M363.788 257.147L366.195 263.776C366.133 263.935 365.928 264.07 365.603 264.179C364.428 264.571 361.691 264.618 358.546 264.239C355.401 263.86 352.753 263.164 351.705 262.503C351.416 262.321 351.248 262.141 351.226 261.972L355.139 256.104C355.586 256.513 357.306 256.983 359.39 257.235C361.475 257.486 363.256 257.438 363.788 257.147Z" fill="#FFB133"/>
<path fill-rule="evenodd" clip-rule="evenodd" d="M366.195 263.776L366.202 263.795L366.083 264.783C365.987 265.577 362.555 265.815 358.416 265.317C354.277 264.818 351 263.77 351.095 262.976L351.214 261.989L351.226 261.972C351.248 262.141 351.416 262.321 351.705 262.503C352.753 263.164 355.401 263.86 358.546 264.239C361.691 264.618 364.428 264.571 365.603 264.179C365.928 264.07 366.133 263.935 366.195 263.776Z" fill="black"/>
<path fill-rule="evenodd" clip-rule="evenodd" d="M355.476 255.6L360.494 248.075L363.581 256.577L363.788 257.147C363.256 257.438 361.475 257.486 359.39 257.235C357.306 256.983 355.586 256.513 355.139 256.104L355.476 255.6Z" fill="black"/>
<path fill-rule="evenodd" clip-rule="evenodd" d="M358.416 265.317C354.277 264.818 351 263.77 351.095 262.976L341.246 344.692L356.233 346.499L366.083 264.783C365.987 265.577 362.555 265.815 358.416 265.317Z" fill="#BDD358"/>
<path d="M355.757 350.45L355.259 354.581L355.064 356.197C354.705 359.173 352.018 361.296 349.062 360.94L344.78 360.424C341.824 360.067 339.718 357.366 340.077 354.391L340.271 352.774L340.769 348.644L355.757 350.45Z" fill="#F93C6F"/>
<path d="M356.263 348.507L355.995 348.475L341.007 346.668L340.561 346.614C340.019 346.549 339.527 346.938 339.461 347.484C339.395 348.029 339.781 348.524 340.323 348.59L340.769 348.644L355.757 350.45L356.024 350.482C356.566 350.548 357.059 350.158 357.125 349.613C357.191 349.067 356.805 348.572 356.263 348.507Z" fill="#D9D9D9"/>
<path d="M356.233 346.499L356.501 346.531C357.043 346.597 357.429 347.092 357.363 347.637C357.297 348.183 356.805 348.572 356.263 348.507L355.995 348.475L341.007 346.668L340.561 346.614C340.019 346.549 339.633 346.054 339.699 345.508C339.765 344.963 340.258 344.573 340.8 344.639L341.246 344.692L356.233 346.499Z" fill="#D9D9D9"/>
<path fill-rule="evenodd" clip-rule="evenodd" d="M323.949 76.2738C325.425 76.8039 327.138 77.2746 328.984 77.6333C330.886 78.0027 332.701 78.2088 334.303 78.2626L334.084 79.3915C332.517 79.3306 330.752 79.1259 328.905 78.7672C327.003 78.3978 325.243 77.9095 323.738 77.36L323.949 76.2738Z" fill="#BDD358"/>
<path d="M323.548 97.983L314.696 96.2638C313.869 96.1031 313.331 95.2911 313.494 94.45C314.177 90.933 317.536 88.6265 320.995 89.2985L321.404 89.3778C321.378 89.5088 321.78 89.7116 322.472 89.9444C322.64 90.001 322.826 90.0594 323.026 90.119C323.927 90.3863 325.135 90.6771 326.471 90.9366C327.414 91.1197 328.303 91.2644 329.073 91.3651C329.868 91.469 330.537 91.5262 331.008 91.5304C331.464 91.5344 331.734 91.4888 331.754 91.388L332.026 91.4408C335.486 92.1128 337.737 95.5086 337.054 99.0257C336.89 99.8667 336.087 100.418 335.26 100.258L326.544 98.5648L323.548 97.983Z" fill="#BDD358"/>
<path d="M318.88 73.1263C318.76 72.8814 318.718 72.6432 318.763 72.4157C319.097 70.6954 324.215 70.2423 330.194 71.4035C336.174 72.5648 340.75 74.9008 340.416 76.6211C340.387 76.7721 340.32 76.9133 340.22 77.0445C339.541 77.9329 337.294 78.3632 334.303 78.2626C332.701 78.2088 330.886 78.0027 328.984 77.6333C327.138 77.2746 325.425 76.8039 323.949 76.2738C321.278 75.3147 319.384 74.1613 318.88 73.1263Z" fill="#BDD358"/>
<path fill-rule="evenodd" clip-rule="evenodd" d="M323.949 76.2738L323.738 77.36C325.243 77.9095 327.003 78.3978 328.905 78.7672C330.752 79.1259 332.517 79.3306 334.084 79.3915L334.303 78.2626C332.701 78.2088 330.886 78.0027 328.984 77.6333C327.138 77.2746 325.425 76.8039 323.949 76.2738Z" fill="black"/>
<path d="M328.905 78.7672C330.752 79.1259 332.517 79.3306 334.084 79.3915L331.888 90.6958C331.869 90.7966 331.598 90.8422 331.142 90.8382C331.006 90.837 330.853 90.8313 330.686 90.8214C330.274 90.797 329.773 90.7468 329.208 90.6729C328.437 90.5722 327.548 90.4275 326.606 90.2445C325.269 89.9849 324.062 89.6941 323.161 89.4268C322.96 89.3672 322.774 89.3088 322.606 89.2522C321.914 89.0194 321.513 88.8166 321.538 88.6856L323.738 77.36C325.243 77.9095 327.003 78.3978 328.905 78.7672Z" fill="#BDD358"/>
<path fill-rule="evenodd" clip-rule="evenodd" d="M324.515 109.015L326.45 99.0494L323.454 98.4675L321.519 108.433L321.874 114.61L324.515 109.015Z" fill="#D9D9D9"/>
<path d="M323.548 97.983L326.544 98.5648L326.45 99.0494L323.454 98.4675L323.548 97.983Z" fill="black"/>
<path d="M322.472 89.9444L322.606 89.2522C322.774 89.3088 322.96 89.3672 323.161 89.4268L323.026 90.119C322.826 90.0594 322.64 90.001 322.472 89.9444Z" fill="#BDD358"/>
<path fill-rule="evenodd" clip-rule="evenodd" d="M326.471 90.9366C325.135 90.6771 323.927 90.3863 323.026 90.119L323.161 89.4268C324.062 89.6941 325.269 89.9849 326.606 90.2445C327.548 90.4275 328.437 90.5722 329.208 90.6729L329.073 91.3651C328.303 91.2644 327.414 91.1197 326.471 90.9366ZM331.008 91.5304L331.142 90.8382C331.598 90.8422 331.869 90.7966 331.888 90.6958L331.754 91.388C331.734 91.4888 331.464 91.5344 331.008 91.5304ZM321.404 89.3778C321.378 89.5088 321.78 89.7116 322.472 89.9444L322.606 89.2522C321.914 89.0194 321.513 88.8166 321.538 88.6856L321.404 89.3778Z" fill="black"/>
<path d="M330.686 90.8214C330.853 90.8313 331.006 90.837 331.142 90.8382L331.008 91.5304C330.537 91.5262 329.868 91.469 329.073 91.3651L329.208 90.6729C329.773 90.7468 330.274 90.797 330.686 90.8214Z" fill="#BDD358"/>
</g>
<defs>
<filter id="filter0_d_440_429" x="76" y="167" width="252" height="219" filterUnits="userSpaceOnUse" color-interpolation-filters="sRGB">
<feFlood flood-opacity="0" result="BackgroundImageFix"/>
<feColorMatrix in="SourceAlpha" type="matrix" values="0 0 0 0 0 0 0 0 0 0 0 0 0 0 0 0 0 0 127 0" result="hardAlpha"/>
<feOffset dx="-6" dy="6"/>
<feGaussianBlur stdDeviation="1.5"/>
<feComposite in2="hardAlpha" operator="out"/>
<feColorMatrix type="matrix" values="0 0 0 0 0 0 0 0 0 0 0 0 0 0 0 0 0 0 0.3 0"/>
<feBlend mode="normal" in2="BackgroundImageFix" result="effect1_dropShadow_440_429"/>
<feBlend mode="normal" in="SourceGraphic" in2="effect1_dropShadow_440_429" result="shape"/>
</filter>
<filter id="filter1_d_440_429" x="313.038" y="385.151" width="59.9448" height="38.5973" filterUnits="userSpaceOnUse" color-interpolation-filters="sRGB">
<feFlood flood-opacity="0" result="BackgroundImageFix"/>
<feColorMatrix in="SourceAlpha" type="matrix" values="0 0 0 0 0 0 0 0 0 0 0 0 0 0 0 0 0 0 127 0" result="hardAlpha"/>
<feOffset dx="-3" dy="2"/>
<feComposite in2="hardAlpha" operator="out"/>
<feColorMatrix type="matrix" values="0 0 0 0 0 0 0 0 0 0 0 0 0 0 0 0 0 0 1 0"/>
<feBlend mode="normal" in2="BackgroundImageFix" result="effect1_dropShadow_440_429"/>
<feBlend mode="normal" in="SourceGraphic" in2="effect1_dropShadow_440_429" result="shape"/>
</filter>
<clipPath id="clip0_440_429">
<rect width="412" height="917" fill="white"/>
</clipPath>
</defs>
</svg>
