<svg width="75" height="108" viewBox="0 0 75 108" fill="none" xmlns="http://www.w3.org/2000/svg">
<path fill-rule="evenodd" clip-rule="evenodd" d="M75 38C75 58.4345 58.4345 75 38 75C17.5655 75 1 58.4345 1 38C1 17.5655 17.5655 1 38 1C58.4345 1 75 17.5655 75 38ZM20.2222 25.8788C20.2222 26.7903 20.29 27.6858 20.4209 28.5606C21.7075 37.1626 29.0879 43.7576 38 43.7576C46.9121 43.7576 54.2925 37.1626 55.5791 28.5606C55.71 27.6858 55.7778 26.7903 55.7778 25.8788C55.7778 16.0046 47.8184 8 38 8C28.1816 8 20.2222 16.0046 20.2222 25.8788ZM14 59.5505C14 52.1294 19.395 45.9756 26.4558 44.8394C29.5619 47.5091 33.5938 49.1212 38 49.1212C42.4062 49.1212 46.4381 47.5091 49.5442 44.8394C56.605 45.9756 62 52.1294 62 59.5505C62 63.6647 58.6836 67 54.5926 67H21.4074C17.3164 67 14 63.6647 14 59.5505Z" fill="#05299E"/>
<path d="M12.1515 98.6395H6.69289V95.347H12.1515C13.0442 95.347 13.7672 95.1945 14.3203 94.8897C14.8832 94.5746 15.2956 94.1478 15.5576 93.6092C15.8196 93.0605 15.9506 92.4355 15.9506 91.7343C15.9506 91.0535 15.8196 90.4183 15.5576 89.8289C15.2956 89.2395 14.8832 88.7619 14.3203 88.3961C13.7672 88.0302 13.0442 87.8473 12.1515 87.8473H8.00294V106.734H4V84.5396H12.1515C13.8011 84.5396 15.2082 84.8495 16.3727 85.4694C17.5469 86.0791 18.4397 86.9277 19.0511 88.015C19.6721 89.0922 19.9827 90.3218 19.9827 91.7038C19.9827 93.1367 19.6721 94.3714 19.0511 95.4079C18.4397 96.4445 17.5469 97.2422 16.3727 97.8011C15.2082 98.36 13.8011 98.6395 12.1515 98.6395Z" fill="#05299E"/>
<path d="M29.7062 107.038C28.5126 107.038 27.4403 106.835 26.4893 106.429C25.5383 106.022 24.728 105.458 24.0584 104.737C23.3985 104.005 22.889 103.157 22.53 102.191C22.1806 101.216 22.006 100.169 22.006 99.051V98.4413C22.006 97.1711 22.1806 96.0177 22.53 94.9811C22.8793 93.9344 23.3743 93.0351 24.0147 92.2831C24.6552 91.5311 25.4218 90.9518 26.3146 90.5454C27.2074 90.1389 28.1923 89.9356 29.2695 89.9356C30.3855 89.9356 31.3704 90.1338 32.2244 90.5301C33.0784 90.9163 33.7916 91.465 34.3642 92.1764C34.9367 92.8877 35.3685 93.7413 35.6597 94.7372C35.9508 95.723 36.0963 96.8154 36.0963 98.0145V99.7065H23.7527V96.9322H32.3117V96.6274C32.2923 95.9872 32.1759 95.4029 31.9624 94.8744C31.7489 94.3358 31.419 93.909 30.9726 93.594C30.5262 93.2688 29.9488 93.1062 29.2404 93.1062C28.6678 93.1062 28.1681 93.2383 27.7411 93.5025C27.3238 93.7566 26.9745 94.1224 26.6931 94.6C26.4213 95.0675 26.2176 95.6264 26.0817 96.2768C25.9458 96.9272 25.8779 97.6487 25.8779 98.4413V99.051C25.8779 99.7421 25.9652 100.382 26.1399 100.972C26.3243 101.561 26.5912 102.074 26.9405 102.511C27.2996 102.938 27.7265 103.273 28.2215 103.517C28.7261 103.751 29.2986 103.868 29.9391 103.868C30.7445 103.868 31.4723 103.705 32.1225 103.38C32.7824 103.045 33.3549 102.552 33.8401 101.902L35.7761 104.005C35.4462 104.513 34.9998 105.001 34.4369 105.468C33.8838 105.936 33.2142 106.317 32.4282 106.612C31.6422 106.896 30.7348 107.038 29.7062 107.038Z" fill="#05299E"/>
<path d="M42.5156 93.6092V106.734H38.6728V90.2405H42.3118L42.5156 93.6092ZM47.3046 90.1338L47.2464 93.8836C47.0329 93.843 46.7903 93.8125 46.5186 93.7922C46.2565 93.7718 46.0091 93.7617 45.7762 93.7617C45.1842 93.7617 44.6651 93.848 44.2187 94.0208C43.7723 94.1834 43.3987 94.4222 43.0979 94.7372C42.8067 95.0523 42.5835 95.4384 42.4283 95.8957C42.273 96.3428 42.1857 96.851 42.1663 97.42L41.3366 97.3133C41.3366 96.2666 41.4384 95.2961 41.6422 94.4019C41.846 93.5076 42.142 92.7251 42.5302 92.0544C42.9183 91.3837 43.4035 90.8655 43.9858 90.4996C44.5777 90.1236 45.257 89.9356 46.0236 89.9356C46.2371 89.9356 46.4652 89.956 46.7078 89.9966C46.9601 90.0271 47.159 90.0728 47.3046 90.1338Z" fill="#05299E"/>
<path d="M54.277 106.734H50.405V89.3259C50.405 87.9642 50.6671 86.8159 51.1911 85.881C51.7248 84.9359 52.4866 84.2195 53.4764 83.7317C54.4759 83.2439 55.6647 83 57.0427 83C57.8481 83 58.6244 83.0864 59.3716 83.2591C60.1286 83.4217 60.9049 83.6351 61.7006 83.8993L61.1329 87.1614C60.6186 86.9886 60.0558 86.826 59.4444 86.6736C58.8428 86.5212 58.1295 86.445 57.3047 86.445C56.2857 86.445 55.524 86.6888 55.0193 87.1766C54.5244 87.6644 54.277 88.3808 54.277 89.3259V106.734ZM57.4211 90.2405V93.1367H48.0324V90.2405H57.4211ZM63.5056 90.2405V106.734H59.6482V90.2405H63.5056Z" fill="#05299E"/>
<path d="M71.3077 83.3201V106.734H67.4503V83.3201H71.3077Z" fill="#05299E"/>
</svg>
