<svg width="80" height="80" viewBox="0 0 80 80" fill="none" xmlns="http://www.w3.org/2000/svg">
<path fill-rule="evenodd" clip-rule="evenodd" d="M28.1906 47.7796C20.6668 48.9904 14.918 55.5477 14.918 63.4555C14.918 67.8395 18.4519 71.3934 22.8112 71.3934H58.1724C62.5317 71.3934 66.0656 67.8395 66.0656 63.4555C66.0656 55.5478 60.3168 48.9904 52.793 47.7797C49.4832 50.6245 45.187 52.3423 40.4918 52.3423C35.7966 52.3423 31.5004 50.6245 28.1906 47.7796Z" fill="#D9D9D9"/>
<path d="M21.5483 27.5758C21.5483 28.547 21.6205 29.5013 21.76 30.4334C23.131 39.5995 30.9953 46.6269 40.4918 46.6269C49.9883 46.6269 57.8526 39.5995 59.2236 30.4334C59.3631 29.5013 59.4353 28.547 59.4353 27.5758C59.4353 17.0541 50.954 8.5246 40.4918 8.5246C30.0296 8.5246 21.5483 17.0541 21.5483 27.5758Z" fill="#D9D9D9"/>
</svg>
