<svg width="59" height="59" viewBox="0 0 59 59" fill="none" xmlns="http://www.w3.org/2000/svg">
<path d="M29.2969 0C23.5025 0 17.8383 1.71823 13.0204 4.93741C8.20257 8.15659 4.44752 12.7321 2.2301 18.0854C0.0126932 23.4387 -0.567482 29.3294 0.562945 35.0124C1.69337 40.6954 4.48363 45.9156 8.58087 50.0129C12.6781 54.1101 17.8983 56.9004 23.5814 58.0308C29.2644 59.1612 35.155 58.5811 40.5083 56.3637C45.8616 54.1462 50.4372 50.3912 53.6563 45.5733C56.8755 40.7555 58.5938 35.0912 58.5938 29.2969C58.5852 21.5295 55.4959 14.0827 50.0035 8.59028C44.5111 3.0979 37.0643 0.00853007 29.2969 0ZM29.2969 51.5625C24.8932 51.5625 20.5883 50.2566 16.9268 47.8101C13.2652 45.3635 10.4114 41.8861 8.72613 37.8176C7.0409 33.749 6.59997 29.2722 7.45909 24.9531C8.31822 20.634 10.4388 16.6666 13.5527 13.5527C16.6666 10.4388 20.634 8.3182 24.9531 7.45908C29.2722 6.59995 33.7491 7.04089 37.8176 8.72612C41.8861 10.4114 45.3635 13.2652 47.8101 16.9268C50.2567 20.5883 51.5625 24.8932 51.5625 29.2969C51.5563 35.2002 49.2085 40.8599 45.0342 45.0342C40.8599 49.2085 35.2002 51.5563 29.2969 51.5625ZM43.3594 25.7812C44.2918 25.7812 45.186 26.1516 45.8453 26.811C46.5046 27.4703 46.875 28.3645 46.875 29.2969C46.875 30.2293 46.5046 31.1235 45.8453 31.7828C45.186 32.4421 44.2918 32.8125 43.3594 32.8125H29.2969C28.3645 32.8125 27.4703 32.4421 26.811 31.7828C26.1517 31.1235 25.7813 30.2293 25.7813 29.2969V15.2344C25.7813 14.302 26.1517 13.4078 26.811 12.7485C27.4703 12.0891 28.3645 11.7187 29.2969 11.7187C30.2293 11.7187 31.1235 12.0891 31.7828 12.7485C32.4421 13.4078 32.8125 14.302 32.8125 15.2344V25.7812H43.3594Z" fill="#2D4BE0"/>
</svg>
