<svg width="75" height="75" viewBox="0 0 75 75" fill="none" xmlns="http://www.w3.org/2000/svg">
<path fill-rule="evenodd" clip-rule="evenodd" d="M44.2923 58.2222C44.319 58.1191 44.3432 58.015 44.3646 57.91L44.3642 58.2222H44.2923ZM58.2754 57.4444H44.96H44.4413C44.4216 57.6015 44.3959 57.7568 44.3646 57.91L44.3653 57.4444L44.3653 57.4246L44.4438 57.4247L44.96 57.4254L58.2754 57.4444ZM58.2754 57.4444H67.6843L67.6662 57.4578L58.2754 57.4444Z" fill="#D9D9D9"/>
<path fill-rule="evenodd" clip-rule="evenodd" d="M44.3646 57.91C44.3959 57.7568 44.4216 57.6015 44.4413 57.4444H44.96H58.2754L44.96 57.4254L44.4438 57.4247L44.3653 57.4246L44.3653 57.4444L44.3646 57.91Z" fill="#D9D9D9"/>
<path fill-rule="evenodd" clip-rule="evenodd" d="M18.303 57.4444H30.8555H31.0818L31.0818 57.4262L30.8555 57.4265L18.303 57.4444Z" fill="#D9D9D9"/>
<path fill-rule="evenodd" clip-rule="evenodd" d="M31.0818 57.4444L31.0818 57.4262L30.8555 57.4265L18.303 57.4444H30.8555H31.0818Z" fill="#D9D9D9"/>
<path fill-rule="evenodd" clip-rule="evenodd" d="M58.2754 57.4444L44.96 57.4254L44.4438 57.4247L44.3653 57.4246L44.3653 57.4444H44.4413H44.96H58.2754Z" fill="#D9D9D9"/>
<path fill-rule="evenodd" clip-rule="evenodd" d="M39.4562 58.2222H40.5075C40.1829 58.4364 39.83 58.6117 39.4555 58.7412L39.4562 58.2222ZM44.3653 57.4246L44.4438 57.4247L44.4413 57.4444C44.4216 57.6015 44.3959 57.7568 44.3646 57.91L44.3653 57.4444L44.3653 57.4246Z" fill="#D9D9D9"/>
<path fill-rule="evenodd" clip-rule="evenodd" d="M39.4562 58.2222H40.5075C40.1829 58.4364 39.83 58.6117 39.4555 58.7412L39.4562 58.2222Z" fill="#D9D9D9"/>
<path d="M31.0818 57.4444H30.8555H18.303L6.94874 57.4606C5.87093 57.4622 4.99845 58.3307 5 59.4005C5.00155 60.4703 5.87654 61.3364 6.95435 61.3348L31.0445 61.3004C31.7288 64.0008 34.1913 66 37.1241 66H38.6913C41.6245 66 44.0873 64.0003 44.7712 61.2994L68.0456 61.3326C69.1235 61.3341 69.9984 60.4681 70 59.3983C70.0015 58.3284 69.1291 57.4599 68.0513 57.4584L67.6662 57.4578L58.2754 57.4444H44.96H44.4413C44.4216 57.6015 44.3959 57.7568 44.3646 57.91L44.3642 58.2222H44.2923C43.5964 60.9059 41.1421 62.8889 38.2211 62.8889H37.9077C34.711 62.8889 32.0731 60.5138 31.6875 57.4444H31.0818Z" fill="#D9D9D9"/>
<path fill-rule="evenodd" clip-rule="evenodd" d="M42.5442 55.1111H44.1764H44.4898H44.96H69.1727C69.2241 54.8598 69.251 54.5997 69.251 54.3333V13.8889C69.251 11.7411 67.4969 10 65.3331 10H48.8779C44.9068 10 41.4285 12.0944 39.503 15.231C39.5125 15.3008 39.5174 15.372 39.5173 15.4444L39.5073 22.4444L39.4629 53.5556L39.4607 55.1111L39.4562 58.2222H40.5075C41.5675 57.5227 42.3251 56.4075 42.5442 55.1111ZM44.96 25.0454C44.4859 24.7063 44.1775 24.1533 44.1781 23.5295C44.1784 23.1243 44.3091 22.7496 44.5307 22.4444C44.8717 21.9747 45.4282 21.6695 46.0565 21.671L61.7303 21.7069C62.7668 21.7093 63.6063 22.5452 63.6054 23.5741C63.6044 24.6029 62.7635 25.435 61.727 25.4326L46.0531 25.3966C45.6451 25.3957 45.2677 25.2656 44.96 25.0454ZM63.5102 44.1069L44.96 44.0644L44.4859 44.0633C43.4494 44.0609 42.61 43.225 42.6109 42.1961C42.6118 41.1673 43.4528 40.3352 44.4893 40.3376L44.96 40.3387L63.5135 40.3813C64.55 40.3837 65.3895 41.2196 65.3886 42.2484C65.3877 43.2772 64.5467 44.1093 63.5102 44.1069ZM44.96 34.731L63.9135 34.7745C64.95 34.7769 65.791 33.9448 65.7919 32.916C65.7928 31.8872 64.9533 31.0512 63.9169 31.0489L44.96 31.0054L44.4893 31.0043C43.4528 31.0019 42.6118 31.834 42.6109 32.8628C42.61 33.8916 43.4495 34.7276 44.4859 34.7299L44.96 34.731Z" fill="#D9D9D9"/>
<path fill-rule="evenodd" clip-rule="evenodd" d="M36.323 57.4444L36.3263 55.1111L36.3285 53.5556L36.373 22.4444L36.383 15.4444C36.383 15.4135 36.384 15.3828 36.3858 15.3524C34.4762 12.1485 30.9596 10 26.9375 10H9.6987C7.5349 10 5.78079 11.7411 5.78079 13.8889V53.5556C5.78079 54.1086 5.89711 54.6348 6.10679 55.1111H30.8555H31.639H32.4226H33.2712C33.4213 55.999 33.8239 56.8019 34.4034 57.4444C34.92 58.0174 35.5772 58.4629 36.3212 58.7276L36.323 57.4444ZM11.6005 25.3966C10.564 25.3942 9.72452 24.5583 9.72544 23.5295C9.72637 22.5007 10.5674 21.6686 11.6038 21.671L27.2777 21.7069C28.3142 21.7093 29.1537 22.5452 29.1528 23.5741C29.1518 24.6029 28.3108 25.435 27.2744 25.4326L11.6005 25.3966ZM30.8555 44.0904C31.7711 43.9686 32.4772 43.1911 32.4781 42.2484C32.4789 41.3046 31.7725 40.5231 30.8555 40.3986C30.7729 40.3874 30.6886 40.3815 30.603 40.3813L11.5788 40.3376C10.5423 40.3352 9.70131 41.1673 9.70038 42.1961C9.69945 43.225 10.5389 44.0609 11.5754 44.0633L30.5997 44.1069C30.6864 44.1071 30.7718 44.1015 30.8555 44.0904ZM30.8555 34.7742L32.2715 34.7774C33.308 34.7798 34.149 33.9477 34.1499 32.9189C34.1509 31.8901 33.3114 31.0541 32.2749 31.0518L30.8555 31.0485L12.8473 31.0072C11.8108 31.0048 10.9698 31.8369 10.9689 32.8657C10.968 33.8945 11.8075 34.7305 12.844 34.7328L30.8555 34.7742Z" fill="#D9D9D9"/>
<path fill-rule="evenodd" clip-rule="evenodd" d="M40.5075 58.2222H39.4562L39.4555 58.7412C39.83 58.6117 40.1829 58.4364 40.5075 58.2222ZM31.0818 57.4444L31.0818 57.4262L30.8555 57.4265V57.4444H31.0818ZM44.96 57.4254V57.4444H44.4413C44.4216 57.6015 44.3959 57.7568 44.3646 57.91L44.3653 57.4444L44.3653 57.4246L44.4438 57.4247L44.96 57.4254ZM44.3646 57.91L44.3642 58.2222H44.2923C44.319 58.1191 44.3432 58.015 44.3646 57.91Z" fill="#D9D9D9"/>
<path fill-rule="evenodd" clip-rule="evenodd" d="M30.8555 57.4444H18.303L30.8555 57.4265L31.0818 57.4262L31.0818 57.4444H30.8555Z" fill="#D9D9D9"/>
</svg>
