<svg width="137" height="99" viewBox="0 0 137 99" fill="none" xmlns="http://www.w3.org/2000/svg">
<path d="M11.89 92.6054C11.89 92.1555 11.8278 91.7539 11.7035 91.4004C11.5888 91.0362 11.3736 90.7095 11.0581 90.4203C10.7521 90.1204 10.3171 89.8312 9.75293 89.5527C9.19835 89.2635 8.48123 88.9636 7.60155 88.653C6.62626 88.3102 5.7179 87.9246 4.87647 87.4961C4.03504 87.0677 3.294 86.5696 2.65337 86.0019C2.0223 85.4342 1.52987 84.7808 1.17609 84.0418C0.822306 83.292 0.645415 82.4244 0.645415 81.4389C0.645415 80.4749 0.827087 79.5966 1.19043 78.804C1.56334 78.0114 2.08923 77.3312 2.76811 76.7635C3.44699 76.1851 4.24539 75.7406 5.16332 75.4299C6.0908 75.1193 7.1139 74.964 8.23262 74.964C9.78162 74.964 11.1203 75.28 12.2485 75.912C13.3864 76.5439 14.2661 77.4008 14.8876 78.4826C15.5091 79.5645 15.8198 80.7802 15.8198 82.1298H11.89C11.89 81.4015 11.7513 80.7588 11.474 80.2018C11.2063 79.6448 10.7952 79.2057 10.2406 78.8843C9.69556 78.563 9.00712 78.4023 8.17525 78.4023C7.37207 78.4023 6.70275 78.5362 6.16729 78.804C5.6414 79.0718 5.24459 79.4359 4.97686 79.8965C4.7187 80.3571 4.58961 80.8713 4.58961 81.4389C4.58961 81.8674 4.68045 82.253 4.86212 82.5958C5.0438 82.9278 5.3163 83.2438 5.67965 83.5437C6.04299 83.8329 6.49239 84.106 7.02785 84.3631C7.57286 84.6095 8.20394 84.8558 8.92106 85.1022C10.0685 85.4878 11.0724 85.9162 11.933 86.3875C12.8031 86.8588 13.525 87.3944 14.0987 87.9942C14.682 88.594 15.117 89.2689 15.4039 90.0186C15.7003 90.7684 15.8485 91.62 15.8485 92.5733C15.8485 93.5801 15.6716 94.4799 15.3178 95.2725C14.9641 96.0651 14.4573 96.7399 13.7975 97.2969C13.1378 97.8539 12.3442 98.277 11.4167 98.5662C10.4987 98.8554 9.47086 99 8.33302 99C7.31948 99 6.3155 98.85 5.32108 98.5501C4.33623 98.2395 3.44221 97.7789 2.63903 97.1684C1.83585 96.5471 1.19521 95.7652 0.717127 94.8226C0.239042 93.8693 0 92.7554 0 91.4807H3.95854C3.95854 92.2198 4.06372 92.8518 4.27408 93.3766C4.494 93.8907 4.79997 94.3138 5.192 94.6459C5.59359 94.9672 6.06212 95.2029 6.59757 95.3528C7.13303 95.5028 7.71151 95.5778 8.33302 95.5778C9.1362 95.5778 9.79596 95.4546 10.3123 95.2082C10.8382 94.9512 11.2302 94.5977 11.4884 94.1478C11.7561 93.6979 11.89 93.1838 11.89 92.6054Z" fill="#F93C6F"/>
<path d="M22.6182 81.2943V98.6787H18.8174V81.2943H22.6182ZM18.5593 76.7474C18.5593 76.1155 18.7505 75.5906 19.133 75.1729C19.525 74.7551 20.0509 74.5463 20.7106 74.5463C21.3704 74.5463 21.8915 74.7551 22.274 75.1729C22.666 75.5906 22.862 76.1155 22.862 76.7474C22.862 77.3687 22.666 77.8882 22.274 78.3059C21.8915 78.7237 21.3704 78.9325 20.7106 78.9325C20.0509 78.9325 19.525 78.7237 19.133 78.3059C18.7505 77.8882 18.5593 77.3687 18.5593 76.7474Z" fill="#F93C6F"/>
<path d="M30.0046 84.8612V98.6787H26.2182V81.2943H29.7895L30.0046 84.8612ZM29.4452 89.3599H28.2835C28.2835 88.1495 28.4126 87.0356 28.6707 86.018C28.9385 85.0004 29.3305 84.1168 29.8468 83.367C30.3632 82.6065 30.999 82.0174 31.7544 81.5996C32.5193 81.1819 33.4038 80.973 34.4078 80.973C35.1058 80.973 35.7464 81.0908 36.3297 81.3265C36.9129 81.5514 37.4149 81.9102 37.8356 82.403C38.2659 82.885 38.5958 83.5169 38.8253 84.2988C39.0548 85.0701 39.1695 85.9966 39.1695 87.0784V98.6787H35.3831V87.5122C35.3831 86.6982 35.2779 86.0608 35.0675 85.6003C34.8667 85.1397 34.5751 84.8183 34.1926 84.6362C33.8102 84.4434 33.3512 84.347 32.8157 84.347C32.2229 84.347 31.7114 84.4809 31.2811 84.7487C30.8604 85.0058 30.5114 85.3646 30.2341 85.8252C29.9664 86.2858 29.7656 86.816 29.6317 87.4158C29.5074 88.0156 29.4452 88.6637 29.4452 89.3599ZM38.8826 88.5726L37.3193 88.894C37.3289 87.8014 37.4627 86.7785 37.7209 85.8252C37.9791 84.8612 38.3568 84.0204 38.854 83.3027C39.3607 82.5743 39.987 82.0066 40.7328 81.5996C41.4882 81.1819 42.3583 80.973 43.3432 80.973C44.1081 80.973 44.7966 81.0962 45.4085 81.3425C46.03 81.5782 46.5607 81.9584 47.0005 82.4833C47.4404 82.9974 47.775 83.6669 48.0045 84.4916C48.2435 85.3164 48.3631 86.3233 48.3631 87.5122V98.6787H44.548V87.4961C44.548 86.65 44.4428 86.0019 44.2324 85.5521C44.0316 85.1022 43.74 84.7916 43.3575 84.6202C42.9751 84.4381 42.5257 84.347 42.0093 84.347C41.4834 84.347 41.0245 84.4595 40.6324 84.6844C40.25 84.8987 39.9249 85.1986 39.6571 85.5842C39.399 85.9698 39.203 86.4197 39.0691 86.9338C38.9448 87.4372 38.8826 87.9835 38.8826 88.5726Z" fill="#F93C6F"/>
<path d="M60.9989 94.5495V81.2943H64.814V98.6787H61.2283L60.9989 94.5495ZM61.4865 90.9505L62.6626 90.9184C62.6626 92.0859 62.5478 93.1624 62.3184 94.1478C62.0889 95.1332 61.7303 95.9901 61.2427 96.7185C60.7646 97.4362 60.1574 97.9985 59.4212 98.4055C58.6849 98.8018 57.8148 99 56.8108 99C56.0459 99 55.3479 98.8822 54.7168 98.6465C54.0857 98.4002 53.5407 98.0199 53.0818 97.5058C52.6324 96.9809 52.2834 96.3115 52.0348 95.4974C51.7862 94.6727 51.6619 93.6819 51.6619 92.5251V81.2943H55.4483V92.5572C55.4483 93.1356 55.5057 93.6176 55.6204 94.0032C55.7447 94.3888 55.912 94.7048 56.1224 94.9512C56.3423 95.1868 56.5957 95.3582 56.8825 95.4653C57.179 95.5617 57.4945 95.6099 57.8291 95.6099C58.7471 95.6099 59.469 95.4064 59.9949 94.9994C60.5303 94.5816 60.9128 94.0246 61.1423 93.3284C61.3718 92.6215 61.4865 91.8288 61.4865 90.9505Z" fill="#F93C6F"/>
<path d="M72.186 74V98.6787H68.3853V74H72.186Z" fill="#F93C6F"/>
<path d="M84.3485 94.9833V86.9659C84.3485 86.3768 84.2577 85.868 84.076 85.4396C83.8943 85.0111 83.617 84.6791 83.2441 84.4434C82.8712 84.2078 82.3979 84.09 81.8242 84.09C81.3175 84.09 80.8728 84.1864 80.4904 84.3792C80.1175 84.572 79.8306 84.8451 79.6298 85.1986C79.429 85.5413 79.3286 85.9377 79.3286 86.3875H75.5278C75.5278 85.6699 75.6808 84.9897 75.9868 84.347C76.2928 83.6937 76.7278 83.1153 77.292 82.6118C77.8657 82.0977 78.5493 81.696 79.343 81.4068C80.1461 81.1176 81.045 80.973 82.0394 80.973C83.2155 80.973 84.2625 81.1979 85.1804 81.6478C86.1079 82.087 86.8346 82.7511 87.3605 83.6401C87.8959 84.5291 88.1636 85.6485 88.1636 86.9981V94.5816C88.1636 95.4492 88.2114 96.1937 88.3071 96.8149C88.4122 97.4254 88.5652 97.9557 88.766 98.4055V98.6787H84.9079C84.7262 98.2395 84.5876 97.6825 84.4919 97.0077C84.3963 96.3222 84.3485 95.6474 84.3485 94.9833ZM84.8792 88.0906L84.9079 90.6131H82.5127C81.9198 90.6131 81.3987 90.6827 80.9493 90.822C80.4999 90.9505 80.1318 91.1433 79.845 91.4004C79.5581 91.6467 79.343 91.9467 79.1995 92.3001C79.0561 92.6429 78.9844 93.0338 78.9844 93.473C78.9844 93.9015 79.0705 94.2871 79.2426 94.6298C79.4242 94.9726 79.6824 95.2457 80.0171 95.4492C80.3613 95.642 80.7629 95.7384 81.2218 95.7384C81.8912 95.7384 82.4744 95.5885 82.9716 95.2886C83.4688 94.9779 83.8561 94.603 84.1334 94.1639C84.4107 93.7247 84.5589 93.307 84.578 92.9107L85.668 94.7423C85.5342 95.1814 85.3334 95.6474 85.0656 96.1401C84.7979 96.6328 84.4537 97.0934 84.033 97.5219C83.6123 97.9503 83.1055 98.3038 82.5127 98.5823C81.9198 98.8608 81.2314 99 80.4473 99C79.4434 99 78.5446 98.7751 77.7509 98.3252C76.9573 97.8753 76.331 97.2594 75.8721 96.4775C75.4131 95.6956 75.1836 94.8066 75.1836 93.8104C75.1836 92.8892 75.3366 92.0752 75.6426 91.3683C75.9486 90.6613 76.4027 90.0668 77.0051 89.5848C77.6075 89.0921 78.3533 88.7226 79.2426 88.4762C80.1414 88.2192 81.1693 88.0906 82.3262 88.0906H84.8792Z" fill="#F93C6F"/>
<path d="M100.885 94.9833V74H104.701V98.6787H101.258L100.885 94.9833ZM90.9174 90.1954V89.858C90.9174 88.5298 91.0513 87.3248 91.319 86.2429C91.5963 85.1504 91.9979 84.2132 92.5238 83.4312C93.0497 82.6493 93.6855 82.0441 94.4313 81.6157C95.1867 81.1872 96.0425 80.973 96.9986 80.973C97.9261 80.973 98.7341 81.1819 99.4225 81.5996C100.121 82.0174 100.713 82.6118 101.201 83.383C101.698 84.1542 102.095 85.0701 102.391 86.1305C102.688 87.1802 102.903 88.337 103.037 89.6009V90.5167C102.903 91.7485 102.688 92.8785 102.391 93.9068C102.095 94.9351 101.698 95.8348 101.201 96.606C100.713 97.3665 100.121 97.9557 99.4225 98.3734C98.7245 98.7911 97.907 99 96.97 99C96.0233 99 95.1724 98.7804 94.417 98.3413C93.6712 97.9021 93.0353 97.2862 92.5094 96.4936C91.9931 95.7009 91.5963 94.7691 91.319 93.6979C91.0513 92.6268 90.9174 91.4593 90.9174 90.1954ZM94.7182 89.858V90.1954C94.7182 90.9452 94.7755 91.6467 94.8903 92.3001C95.005 92.9535 95.1915 93.5319 95.4496 94.0353C95.7078 94.5281 96.0377 94.9137 96.4393 95.1922C96.8504 95.4707 97.3476 95.6099 97.9309 95.6099C98.6767 95.6099 99.2887 95.4278 99.7668 95.0636C100.254 94.6887 100.632 94.1799 100.9 93.5373C101.168 92.8839 101.34 92.1502 101.416 91.3361V88.8136C101.378 88.171 101.278 87.5765 101.115 87.0302C100.962 86.4839 100.742 86.0126 100.455 85.6163C100.178 85.22 99.8337 84.9094 99.4225 84.6844C99.0114 84.4595 98.5237 84.347 97.9596 84.347C97.3763 84.347 96.8791 84.4916 96.468 84.7808C96.0568 85.0593 95.7222 85.4503 95.464 85.9537C95.2058 86.4572 95.0146 87.0409 94.8903 87.705C94.7755 88.3691 94.7182 89.0868 94.7182 89.858Z" fill="#F93C6F"/>
<path d="M107.454 90.1632V89.8258C107.454 88.5512 107.617 87.3783 107.942 86.3072C108.267 85.2254 108.74 84.2881 109.362 83.4955C109.983 82.7029 110.744 82.087 111.642 81.6478C112.541 81.1979 113.564 80.973 114.712 80.973C115.878 80.973 116.911 81.1979 117.81 81.6478C118.718 82.087 119.483 82.7029 120.104 83.4955C120.726 84.2881 121.199 85.2254 121.524 86.3072C121.849 87.3783 122.012 88.5512 122.012 89.8258V90.1632C122.012 91.4272 121.849 92.6 121.524 93.6819C121.199 94.753 120.726 95.6902 120.104 96.4936C119.483 97.2862 118.723 97.9021 117.824 98.3413C116.925 98.7804 115.897 99 114.74 99C113.593 99 112.565 98.7804 111.657 98.3413C110.748 97.9021 109.983 97.2862 109.362 96.4936C108.74 95.6902 108.267 94.753 107.942 93.6819C107.617 92.6 107.454 91.4272 107.454 90.1632ZM111.241 89.8258V90.1632C111.241 90.9237 111.308 91.636 111.442 92.3001C111.575 92.9642 111.781 93.548 112.058 94.0514C112.336 94.5548 112.694 94.9512 113.134 95.2404C113.583 95.5189 114.119 95.6581 114.74 95.6581C115.352 95.6581 115.878 95.5189 116.318 95.2404C116.758 94.9512 117.116 94.5548 117.394 94.0514C117.681 93.548 117.891 92.9642 118.025 92.3001C118.159 91.636 118.226 90.9237 118.226 90.1632V89.8258C118.226 89.076 118.159 88.3745 118.025 87.7211C117.891 87.057 117.681 86.4732 117.394 85.9698C117.116 85.4557 116.753 85.054 116.304 84.7648C115.864 84.4649 115.333 84.3149 114.712 84.3149C114.1 84.3149 113.574 84.4649 113.134 84.7648C112.694 85.054 112.336 85.4557 112.058 85.9698C111.781 86.4732 111.575 87.057 111.442 87.7211C111.308 88.3745 111.241 89.076 111.241 89.8258Z" fill="#F93C6F"/>
<path d="M133.3 93.9229C133.3 93.5587 133.214 93.232 133.041 92.9428C132.869 92.6536 132.544 92.3912 132.066 92.1555C131.598 91.9092 130.909 91.6789 130.001 91.4647C129.198 91.2719 128.457 91.0308 127.778 90.7416C127.099 90.4524 126.516 90.1043 126.028 89.6973C125.54 89.2796 125.158 88.7922 124.881 88.2352C124.613 87.6675 124.479 87.0141 124.479 86.2751C124.479 85.5574 124.618 84.8826 124.895 84.2506C125.172 83.608 125.574 83.0456 126.1 82.5636C126.626 82.0709 127.266 81.6853 128.022 81.4068C128.777 81.1176 129.628 80.973 130.575 80.973C131.894 80.973 133.027 81.214 133.974 81.696C134.93 82.178 135.661 82.8421 136.168 83.6883C136.675 84.5238 136.928 85.4664 136.928 86.5161H133.142C133.142 86.0555 133.046 85.6377 132.855 85.2629C132.673 84.888 132.391 84.588 132.009 84.3631C131.626 84.1275 131.143 84.0096 130.56 84.0096C130.034 84.0096 129.59 84.106 129.226 84.2988C128.873 84.4916 128.605 84.7434 128.423 85.054C128.241 85.3646 128.151 85.7074 128.151 86.0823C128.151 86.3608 128.198 86.6125 128.294 86.8374C128.399 87.0516 128.567 87.2498 128.796 87.4319C129.026 87.614 129.336 87.78 129.728 87.9299C130.13 88.0799 130.622 88.2245 131.206 88.3638C132.363 88.6208 133.371 88.9636 134.232 89.392C135.102 89.8098 135.781 90.3668 136.269 91.063C136.756 91.7592 137 92.6482 137 93.7301C137 94.5013 136.852 95.2082 136.555 95.8509C136.259 96.4829 135.829 97.0345 135.265 97.5058C134.7 97.9771 134.026 98.3466 133.242 98.6144C132.458 98.8715 131.574 99 130.589 99C129.164 99 127.959 98.7162 126.975 98.1485C125.99 97.5701 125.244 96.8417 124.737 95.9634C124.23 95.0743 123.977 94.1532 123.977 93.1999H127.606C127.634 93.8747 127.797 94.4156 128.093 94.8226C128.39 95.2296 128.763 95.5242 129.212 95.7063C129.671 95.8777 130.154 95.9634 130.661 95.9634C131.234 95.9634 131.717 95.8777 132.109 95.7063C132.501 95.5242 132.798 95.2832 132.998 94.9833C133.199 94.6727 133.3 94.3192 133.3 93.9229Z" fill="#F93C6F"/>
<path fill-rule="evenodd" clip-rule="evenodd" d="M75.2923 58.2222C75.319 58.1191 75.3432 58.015 75.3646 57.91L75.3642 58.2222H75.2923ZM89.2754 57.4444H75.96H75.4413C75.4216 57.6015 75.3959 57.7568 75.3646 57.91L75.3653 57.4444L75.3653 57.4246L75.4438 57.4247L75.96 57.4254L89.2754 57.4444ZM89.2754 57.4444H98.6843L98.6662 57.4578L89.2754 57.4444Z" fill="#F93C6F"/>
<path fill-rule="evenodd" clip-rule="evenodd" d="M75.3646 57.91C75.3959 57.7568 75.4216 57.6015 75.4413 57.4444H75.96H89.2754L75.96 57.4254L75.4438 57.4247L75.3653 57.4246L75.3653 57.4444L75.3646 57.91Z" fill="#F93C6F"/>
<path fill-rule="evenodd" clip-rule="evenodd" d="M49.303 57.4444H61.8555H62.0818L62.0818 57.4262L61.8555 57.4265L49.303 57.4444Z" fill="#F93C6F"/>
<path fill-rule="evenodd" clip-rule="evenodd" d="M62.0818 57.4444L62.0818 57.4262L61.8555 57.4265L49.303 57.4444H61.8555H62.0818Z" fill="#F93C6F"/>
<path fill-rule="evenodd" clip-rule="evenodd" d="M89.2754 57.4444L75.96 57.4254L75.4438 57.4247L75.3653 57.4246L75.3653 57.4444H75.4413H75.96H89.2754Z" fill="#F93C6F"/>
<path fill-rule="evenodd" clip-rule="evenodd" d="M70.4562 58.2222H71.5075C71.1829 58.4364 70.83 58.6117 70.4555 58.7412L70.4562 58.2222ZM75.3653 57.4246L75.4438 57.4247L75.4413 57.4444C75.4216 57.6015 75.3959 57.7568 75.3646 57.91L75.3653 57.4444L75.3653 57.4246Z" fill="#F93C6F"/>
<path fill-rule="evenodd" clip-rule="evenodd" d="M70.4562 58.2222H71.5075C71.1829 58.4364 70.83 58.6117 70.4555 58.7412L70.4562 58.2222Z" fill="#F93C6F"/>
<path d="M62.0818 57.4444H61.8555H49.303L37.9487 57.4606C36.8709 57.4622 35.9985 58.3307 36 59.4005C36.0016 60.4703 36.8765 61.3364 37.9544 61.3348L62.0445 61.3004C62.7288 64.0008 65.1913 66 68.1241 66H69.6913C72.6245 66 75.0873 64.0003 75.7712 61.2994L99.0456 61.3326C100.123 61.3341 100.998 60.4681 101 59.3983C101.002 58.3284 100.129 57.4599 99.0513 57.4584L98.6662 57.4578L89.2754 57.4444H75.96H75.4413C75.4216 57.6015 75.3959 57.7568 75.3646 57.91L75.3642 58.2222H75.2923C74.5964 60.9059 72.1421 62.8889 69.2211 62.8889H68.9077C65.711 62.8889 63.0731 60.5138 62.6875 57.4444H62.0818Z" fill="#F93C6F"/>
<path fill-rule="evenodd" clip-rule="evenodd" d="M73.5442 55.1111H75.1764H75.4898H75.96H100.173C100.224 54.8598 100.251 54.5997 100.251 54.3333V13.8889C100.251 11.7411 98.4969 10 96.3331 10H79.8779C75.9068 10 72.4285 12.0944 70.503 15.231C70.5125 15.3008 70.5174 15.372 70.5173 15.4444L70.5073 22.4444L70.4629 53.5556L70.4607 55.1111L70.4562 58.2222H71.5075C72.5675 57.5227 73.3251 56.4075 73.5442 55.1111ZM75.96 25.0454C75.4859 24.7063 75.1775 24.1533 75.1781 23.5295C75.1784 23.1243 75.3091 22.7496 75.5307 22.4444C75.8717 21.9747 76.4282 21.6695 77.0565 21.671L92.7303 21.7069C93.7668 21.7093 94.6063 22.5452 94.6054 23.5741C94.6044 24.6029 93.7635 25.435 92.727 25.4326L77.0531 25.3966C76.6451 25.3957 76.2677 25.2656 75.96 25.0454ZM94.5102 44.1069L75.96 44.0644L75.4859 44.0633C74.4494 44.0609 73.61 43.225 73.6109 42.1961C73.6118 41.1673 74.4528 40.3352 75.4893 40.3376L75.96 40.3387L94.5135 40.3813C95.55 40.3837 96.3895 41.2196 96.3886 42.2484C96.3877 43.2772 95.5467 44.1093 94.5102 44.1069ZM75.96 34.731L94.9135 34.7745C95.95 34.7769 96.791 33.9448 96.7919 32.916C96.7928 31.8872 95.9533 31.0512 94.9169 31.0489L75.96 31.0054L75.4893 31.0043C74.4528 31.0019 73.6118 31.834 73.6109 32.8628C73.61 33.8916 74.4495 34.7276 75.4859 34.7299L75.96 34.731Z" fill="#F93C6F"/>
<path fill-rule="evenodd" clip-rule="evenodd" d="M67.323 57.4444L67.3263 55.1111L67.3285 53.5556L67.373 22.4444L67.383 15.4444C67.383 15.4135 67.384 15.3828 67.3858 15.3524C65.4762 12.1485 61.9596 10 57.9375 10H40.6987C38.5349 10 36.7808 11.7411 36.7808 13.8889V53.5556C36.7808 54.1086 36.8971 54.6348 37.1068 55.1111H61.8555H62.639H63.4226H64.2712C64.4213 55.999 64.8239 56.8019 65.4034 57.4444C65.92 58.0174 66.5772 58.4629 67.3212 58.7276L67.323 57.4444ZM42.6005 25.3966C41.564 25.3942 40.7245 24.5583 40.7254 23.5295C40.7264 22.5007 41.5674 21.6686 42.6038 21.671L58.2777 21.7069C59.3142 21.7093 60.1537 22.5452 60.1528 23.5741C60.1518 24.6029 59.3108 25.435 58.2744 25.4326L42.6005 25.3966ZM61.8555 44.0904C62.7711 43.9686 63.4772 43.1911 63.4781 42.2484C63.4789 41.3046 62.7725 40.5231 61.8555 40.3986C61.7729 40.3874 61.6886 40.3815 61.603 40.3813L42.5788 40.3376C41.5423 40.3352 40.7013 41.1673 40.7004 42.1961C40.6995 43.225 41.5389 44.0609 42.5754 44.0633L61.5997 44.1069C61.6864 44.1071 61.7718 44.1015 61.8555 44.0904ZM61.8555 34.7742L63.2715 34.7774C64.308 34.7798 65.149 33.9477 65.1499 32.9189C65.1509 31.8901 64.3114 31.0541 63.2749 31.0518L61.8555 31.0485L43.8473 31.0072C42.8108 31.0048 41.9698 31.8369 41.9689 32.8657C41.968 33.8945 42.8075 34.7305 43.844 34.7328L61.8555 34.7742Z" fill="#F93C6F"/>
<path fill-rule="evenodd" clip-rule="evenodd" d="M71.5075 58.2222H70.4562L70.4555 58.7412C70.83 58.6117 71.1829 58.4364 71.5075 58.2222ZM62.0818 57.4444L62.0818 57.4262L61.8555 57.4265V57.4444H62.0818ZM75.96 57.4254V57.4444H75.4413C75.4216 57.6015 75.3959 57.7568 75.3646 57.91L75.3653 57.4444L75.3653 57.4246L75.4438 57.4247L75.96 57.4254ZM75.3646 57.91L75.3642 58.2222H75.2923C75.319 58.1191 75.3432 58.015 75.3646 57.91Z" fill="#F93C6F"/>
<path fill-rule="evenodd" clip-rule="evenodd" d="M61.8555 57.4444H49.303L61.8555 57.4265L62.0818 57.4262L62.0818 57.4444H61.8555Z" fill="#F93C6F"/>
</svg>
