<svg width="412" height="917" viewBox="0 0 412 917" fill="none" xmlns="http://www.w3.org/2000/svg">
<rect width="412" height="917" fill="#F93C6F"/>
<path d="M124.302 393.241V365.724C124.302 363.566 123.944 362.187 123.227 361.587C122.629 360.868 121.254 360.508 119.103 360.508H105.834C100.096 360.508 95.9122 359.129 93.2823 356.372C90.772 353.614 89.5169 349.657 89.5169 344.502V314.827C89.5169 309.671 90.8318 305.774 93.4616 303.137C96.211 300.379 100.455 299 106.192 299H123.765C129.622 299 133.866 300.379 136.495 303.137C139.125 305.774 140.44 309.671 140.44 314.827V331.373H124.123V317.345C124.123 315.186 123.765 313.808 123.047 313.208C122.45 312.489 121.015 312.129 118.744 312.129H111.213C109.061 312.129 107.627 312.489 106.91 313.208C106.192 313.808 105.834 315.186 105.834 317.345V342.344C105.834 344.382 106.192 345.761 106.91 346.48C107.627 347.2 109.061 347.559 111.213 347.559H124.302C130.04 347.559 134.224 348.938 136.854 351.696C139.484 354.334 140.799 358.23 140.799 363.386V395.759C140.799 400.914 139.424 404.871 136.675 407.629C134.045 410.267 129.861 411.585 124.123 411.585H106.551C100.813 411.585 96.5696 410.267 93.8202 407.629C91.1904 404.871 89.8755 400.914 89.8755 395.759V379.213H106.192V393.241C106.192 395.279 106.551 396.658 107.268 397.377C107.986 398.097 109.42 398.456 111.572 398.456H119.103C121.254 398.456 122.629 398.097 123.227 397.377C123.944 396.658 124.302 395.279 124.302 393.241Z" fill="white"/>
<path d="M277.613 299H316.523C322.38 299 326.624 300.379 329.254 303.137C332.003 305.774 333.378 309.671 333.378 314.827V343.423C333.378 346.42 332.78 348.878 331.585 350.796C330.389 352.715 328.596 353.974 326.206 354.573C328.596 355.173 330.389 356.312 331.585 357.99C332.78 359.669 333.378 362.007 333.378 365.005V395.759C333.378 400.914 332.003 404.871 329.254 407.629C326.624 410.267 322.38 411.585 316.523 411.585H277.613V299ZM317.061 393.601V365.904C317.061 363.746 316.702 362.367 315.985 361.767C315.387 361.048 313.953 360.688 311.682 360.688H293.93V398.816H311.682C313.953 398.816 315.387 398.456 315.985 397.737C316.702 397.018 317.061 395.639 317.061 393.601ZM317.061 342.703V316.985C317.061 314.827 316.702 313.448 315.985 312.848C315.387 312.129 313.953 311.769 311.682 311.769H293.93V347.919H311.682C313.953 347.919 315.387 347.559 315.985 346.84C316.702 346.12 317.061 344.742 317.061 342.703Z" fill="white"/>
<path fill-rule="evenodd" clip-rule="evenodd" d="M242.29 524.231L241.646 438.862H259.397C261.549 438.862 262.984 439.222 263.701 439.942C264.418 440.541 264.777 441.92 264.777 444.078V468.178L265.421 519.015C265.421 521.053 265.062 522.432 264.345 523.152C263.628 523.871 262.193 524.231 260.041 524.231H242.29ZM265.062 537C270.8 537 274.984 535.681 277.613 533.043C280.363 530.286 281.738 526.329 281.738 521.173L281.094 468.178V441.92C281.094 436.764 279.719 432.867 276.97 430.23C274.34 427.472 270.156 426.093 264.418 426.093H225.329L225.973 537H265.062Z" fill="white"/>
<path d="M109.898 436.824H134.985V423.695H68V436.824H93.7605V536.281H109.898V436.824Z" fill="white"/>
<path fill-rule="evenodd" clip-rule="evenodd" d="M343.988 521.987C343.973 522.526 343.941 523.05 343.894 523.561V528.547L343.988 521.987ZM343.988 521.987C343.996 521.719 344 521.448 344 521.173L343.988 521.987Z" fill="white"/>
<path fill-rule="evenodd" clip-rule="evenodd" d="M195.87 415.122L189.583 385.507H163.374L158.953 415.122L159.147 517.936C159.147 519.974 159.506 521.353 160.223 522.073C160.94 522.792 178.119 523.152 180.271 523.152H190.67C192.822 523.152 194.197 522.792 194.795 522.073C195.512 521.353 195.87 519.974 195.87 517.936V415.122ZM162.539 299L142.636 415.122L142.83 520.454C142.83 525.61 144.145 529.566 146.775 532.324C149.524 534.962 153.828 536.281 159.685 536.281H195.332C201.19 536.281 205.433 534.962 208.063 532.324C210.813 529.566 212.187 525.61 212.187 520.454V415.122L186.028 299H162.539ZM186.795 372.378L174.194 313.028L165.334 372.378H186.795Z" fill="white"/>
<path d="M225.329 299H216.722V411.585H225.329H233.039H265.494V398.456H233.039V359.969H264.239V346.84H233.039V312.129H264.239V299H233.039H225.329Z" fill="white"/>
<path d="M289.743 441.92L290.281 519.735V528.727L290.387 521.173C290.387 526.329 291.702 530.286 294.332 533.043C297.081 535.681 301.385 537 307.242 537H327.145C333.002 537 337.246 535.681 339.876 533.043C342.184 530.728 343.524 527.567 343.894 523.561V520.993L343.356 441.92C343.356 436.764 341.981 432.867 339.232 430.23C336.602 427.472 332.359 426.093 326.501 426.093H306.598C300.741 426.093 296.437 427.472 293.688 430.23C291.058 432.867 289.743 436.764 289.743 441.92ZM306.598 519.735L306.06 444.438C306.06 442.28 306.419 440.901 307.136 440.301C307.853 439.582 309.288 439.222 311.439 439.222H321.66C323.931 439.222 325.366 439.582 325.963 440.301C326.681 440.901 327.039 442.28 327.039 444.438L327.573 520.41C327.417 521.509 327.095 522.303 326.607 522.792C326.009 523.511 324.575 523.871 322.304 523.871H312.083C309.932 523.871 308.497 523.511 307.78 522.792C307.063 522.073 306.704 520.694 306.704 518.655L306.598 528.727V519.735Z" fill="white"/>
</svg>
