<svg width="412" height="199" viewBox="0 0 412 199" fill="none" xmlns="http://www.w3.org/2000/svg">
<path fill-rule="evenodd" clip-rule="evenodd" d="M119.5 174C103.965 174 90.0677 168.027 80.804 158.631C77.9999 155.786 75.6203 152.628 73.7483 149.227C72.3225 151.117 70.7345 152.898 69.0026 154.554C60.3447 162.834 48.0887 168 34.5 168C20.9126 168 8.6577 162.836 -4.95911e-05 154.557V178.557C8.6577 186.836 20.9126 192 34.5 192C50.807 192 65.1947 184.561 73.7483 173.227C81.8045 187.863 99.262 198 119.5 198C141.932 198 160.948 185.546 167.532 168.315C175.228 175.56 185.596 180 197 180C215.241 180 230.83 168.642 237.078 152.612C241.444 171.733 258.556 186 279 186C296.478 186 311.521 175.572 318.245 160.598C325.544 173.947 339.715 183 356 183C372.201 183 386.31 174.04 393.641 160.805C396.563 171.062 403.198 179.755 412 185.338V161.338C406.464 157.827 401.785 153.086 398.348 147.499C396.355 144.258 394.78 140.734 393.697 137C393.678 136.935 393.659 136.87 393.641 136.805C386.31 150.04 372.201 159 356 159C342.167 159 329.86 152.469 321.995 142.321C320.6 140.522 319.345 138.609 318.245 136.598C316.906 139.581 315.236 142.384 313.283 144.959C305.431 155.313 292.996 162 279 162C261.731 162 246.84 151.82 240 137.135C239.083 135.166 238.311 133.117 237.697 131C237.468 130.213 237.262 129.417 237.078 128.612C230.83 144.642 215.241 156 197 156C186.184 156 176.299 152.007 168.741 145.416C168.331 145.058 167.927 144.692 167.531 144.319C165.678 149.166 162.841 153.635 159.222 157.555C149.976 167.569 135.62 174 119.5 174Z" fill="url(#paint0_radial_650_212)"/>
<path fill-rule="evenodd" clip-rule="evenodd" d="M356 159C372.201 159 386.31 150.04 393.641 136.805C393.659 136.87 393.678 136.935 393.697 137C394.78 140.734 396.355 144.258 398.348 147.499C401.785 153.086 406.464 157.827 412 161.338V126.905V101.547V0H-4.95911e-05V35.5322V42.9923V122.616V149.806V154.557C8.6577 162.836 20.9126 168 34.5 168C48.0887 168 60.3447 162.834 69.0026 154.554C70.7345 152.898 72.3225 151.117 73.7483 149.227C75.6203 152.628 77.9999 155.786 80.804 158.631C90.0677 168.027 103.965 174 119.5 174C135.62 174 149.976 167.569 159.222 157.555C162.841 153.635 165.678 149.166 167.531 144.319C167.927 144.692 168.331 145.058 168.741 145.416C176.299 152.007 186.184 156 197 156C215.241 156 230.83 144.642 237.078 128.612C237.262 129.417 237.468 130.213 237.697 131C238.311 133.117 239.083 135.166 240 137.135C246.84 151.82 261.731 162 279 162C292.996 162 305.431 155.313 313.283 144.959C315.236 142.384 316.906 139.581 318.245 136.598C319.345 138.609 320.6 140.522 321.995 142.321C329.86 152.469 342.167 159 356 159Z" fill="url(#paint1_radial_650_212)"/>
<path d="M35.2903 65.5814L31.0848 79.6904L20.9688 68.9938L35.2903 65.5814Z" fill="#1E50F3" fill-opacity="0.5"/>
<path d="M27.1685 35.6888L51.8154 39.8752L47.629 64.5222L22.982 60.3358L27.1685 35.6888Z" fill="#1E50F3" fill-opacity="0.5"/>
<path d="M21.1423 17.4217L33.9588 19.5987L31.7818 32.4151L18.9654 30.2381L21.1423 17.4217Z" fill="#1E50F3" fill-opacity="0.5"/>
<path d="M18.5361 62.6236C17.7037 67.5239 13.0564 70.8217 8.15607 69.9894C3.25569 69.157 -0.0420831 64.5097 0.790279 59.6093C1.62264 54.7089 6.26994 51.4112 11.1703 52.2435C16.0707 53.0759 19.3685 57.7232 18.5361 62.6236Z" fill="#1E50F3" fill-opacity="0.5"/>
<path d="M380.209 86.004L388.947 109.55L364.187 105.344L380.209 86.004Z" fill="#1E50F3" fill-opacity="0.5"/>
<path d="M404.895 128.853L400.69 142.962L390.574 132.266L404.895 128.853Z" fill="#1E50F3" fill-opacity="0.5"/>
<path d="M390.747 80.6937L403.564 82.8707L401.387 95.6871L388.57 93.5101L390.747 80.6937Z" fill="#1E50F3" fill-opacity="0.5"/>
<path d="M388.141 125.896C387.309 130.796 382.661 134.094 377.761 133.261C372.861 132.429 369.563 127.782 370.395 122.881C371.228 117.981 375.875 114.683 380.775 115.516C385.676 116.348 388.973 120.995 388.141 125.896Z" fill="#1E50F3" fill-opacity="0.5"/>
<path d="M26.8212 114.35L1.83921 116.929L12.0974 94.0044L26.8212 114.35Z" fill="#1E50F3" fill-opacity="0.5"/>
<path d="M29.3304 125.881L24.0205 137.747L12.1544 132.437L17.4643 120.571L29.3304 125.881Z" fill="#1E50F3" fill-opacity="0.5"/>
<path d="M329.209 108.004L337.947 131.55L313.187 127.344L329.209 108.004Z" fill="#1E50F3" fill-opacity="0.5"/>
<path d="M353.895 150.853L349.69 164.962L339.574 154.266L353.895 150.853Z" fill="#1E50F3" fill-opacity="0.5"/>
<path d="M345.773 120.961L370.42 125.147L366.234 149.794L341.587 145.608L345.773 120.961Z" fill="#1E50F3" fill-opacity="0.5"/>
<path d="M339.747 102.694L352.564 104.871L350.387 117.687L337.57 115.51L339.747 102.694Z" fill="#1E50F3" fill-opacity="0.5"/>
<path d="M337.141 147.896C336.309 152.796 331.661 156.094 326.761 155.261C321.861 154.429 318.563 149.782 319.395 144.881C320.228 139.981 324.875 136.683 329.775 137.516C334.676 138.348 337.973 142.995 337.141 147.896Z" fill="#1E50F3" fill-opacity="0.5"/>
<path fill-rule="evenodd" clip-rule="evenodd" d="M119.5 174.388C103.965 174.388 90.0677 168.415 80.804 159.019C77.9999 156.175 75.6203 153.017 73.7483 149.616C72.3225 151.505 70.7345 153.286 69.0026 154.942C60.3447 163.223 48.0887 168.388 34.5 168.388C20.9126 168.388 8.6577 163.224 -4.95911e-05 154.945V178.945C8.6577 187.224 20.9126 192.388 34.5 192.388C50.807 192.388 65.1947 184.949 73.7483 173.616C81.8045 188.252 99.262 198.388 119.5 198.388C141.932 198.388 160.948 185.934 167.532 168.704C175.228 175.949 185.596 180.388 197 180.388C215.241 180.388 230.83 169.03 237.078 153C241.444 172.121 258.556 186.388 279 186.388C296.478 186.388 311.521 175.96 318.245 160.987C325.544 174.335 339.715 183.388 356 183.388C372.201 183.388 386.31 174.428 393.641 161.194C396.563 171.451 403.198 180.144 412 185.727V161.727C406.464 158.215 401.785 153.474 398.348 147.887C396.355 144.647 394.78 141.122 393.697 137.388C393.678 137.323 393.659 137.259 393.641 137.194C386.31 150.428 372.201 159.388 356 159.388C342.167 159.388 329.86 152.857 321.995 142.71C320.6 140.91 319.345 138.997 318.245 136.987C316.906 139.97 315.236 142.772 313.283 145.348C305.431 155.701 292.996 162.388 279 162.388C261.731 162.388 246.84 152.209 240 137.523C239.083 135.555 238.311 133.505 237.697 131.388C237.468 130.601 237.262 129.805 237.078 129C230.83 145.03 215.241 156.388 197 156.388C186.184 156.388 176.299 152.396 168.741 145.804C168.331 145.446 167.927 145.08 167.531 144.707C165.678 149.555 162.841 154.024 159.222 157.944C149.976 167.957 135.62 174.388 119.5 174.388Z" fill="#F93C6F"/>
<path fill-rule="evenodd" clip-rule="evenodd" d="M412 101.547L396.773 98.9608L392.587 123.608L412 126.905V101.547Z" fill="#1E50F3" fill-opacity="0.5"/>
<path fill-rule="evenodd" clip-rule="evenodd" d="M-4.95911e-05 149.806L10.1371 127.152L-4.95911e-05 122.616V149.806Z" fill="#1E50F3" fill-opacity="0.5"/>
<path fill-rule="evenodd" clip-rule="evenodd" d="M19.3421 46.2777L10.6043 22.732L-4.95911e-05 35.5322V42.9923L19.3421 46.2777Z" fill="#1E50F3" fill-opacity="0.5"/>
<path d="M53.2482 72V44H58.6082L70.5282 63.76H67.6882L79.4082 44H84.7282L84.8082 72H78.7282L78.6882 53.32H79.8083L70.4482 69.04H67.5282L57.9682 53.32H59.3282V72H53.2482Z" fill="white"/>
<path d="M91.0114 72V50.48H97.2514V72H91.0114ZM94.1314 47.48C92.9847 47.48 92.0514 47.1467 91.3314 46.48C90.6114 45.8134 90.2514 44.9867 90.2514 44C90.2514 43.0134 90.6114 42.1867 91.3314 41.52C92.0514 40.8534 92.9847 40.52 94.1314 40.52C95.278 40.52 96.2114 40.84 96.9314 41.48C97.6514 42.0934 98.0114 42.8934 98.0114 43.88C98.0114 44.92 97.6514 45.7867 96.9314 46.48C96.238 47.1467 95.3047 47.48 94.1314 47.48Z" fill="white"/>
<path d="M116.123 50.16C117.829 50.16 119.349 50.5067 120.683 51.2C122.043 51.8667 123.109 52.9067 123.883 54.32C124.656 55.7067 125.043 57.4934 125.043 59.68V72H118.803V60.64C118.803 58.9067 118.416 57.6267 117.643 56.8C116.896 55.9734 115.829 55.56 114.443 55.56C113.456 55.56 112.563 55.7734 111.763 56.2C110.989 56.6 110.376 57.2267 109.923 58.08C109.496 58.9334 109.283 60.0267 109.283 61.36V72H103.043V50.48H109.003V56.44L107.883 54.64C108.656 53.2 109.763 52.0934 111.203 51.32C112.643 50.5467 114.283 50.16 116.123 50.16Z" fill="white"/>
<path d="M143.779 50.16C145.486 50.16 147.006 50.5067 148.339 51.2C149.699 51.8667 150.766 52.9067 151.539 54.32C152.312 55.7067 152.699 57.4934 152.699 59.68V72H146.459V60.64C146.459 58.9067 146.072 57.6267 145.299 56.8C144.552 55.9734 143.486 55.56 142.099 55.56C141.112 55.56 140.219 55.7734 139.419 56.2C138.646 56.6 138.032 57.2267 137.579 58.08C137.152 58.9334 136.939 60.0267 136.939 61.36V72H130.699V42.32H136.939V56.44L135.539 54.64C136.312 53.2 137.419 52.0934 138.859 51.32C140.299 50.5467 141.939 50.16 143.779 50.16Z" fill="white"/>
<path d="M171.555 72V67.8L171.155 66.88V59.36C171.155 58.0267 170.742 56.9867 169.915 56.24C169.115 55.4934 167.875 55.12 166.195 55.12C165.048 55.12 163.915 55.3067 162.795 55.68C161.702 56.0267 160.768 56.5067 159.995 57.12L157.755 52.76C158.928 51.9334 160.342 51.2934 161.995 50.84C163.648 50.3867 165.328 50.16 167.035 50.16C170.315 50.16 172.862 50.9334 174.675 52.48C176.488 54.0267 177.395 56.44 177.395 59.72V72H171.555ZM164.995 72.32C163.315 72.32 161.875 72.04 160.675 71.48C159.475 70.8934 158.555 70.1067 157.915 69.12C157.275 68.1334 156.955 67.0267 156.955 65.8C156.955 64.52 157.262 63.4 157.875 62.44C158.515 61.48 159.515 60.7334 160.875 60.2C162.235 59.64 164.008 59.36 166.195 59.36H171.915V63H166.875C165.408 63 164.395 63.24 163.835 63.72C163.302 64.2 163.035 64.8 163.035 65.52C163.035 66.32 163.342 66.96 163.955 67.44C164.595 67.8934 165.462 68.12 166.555 68.12C167.595 68.12 168.528 67.88 169.355 67.4C170.182 66.8934 170.782 66.16 171.155 65.2L172.115 68.08C171.662 69.4667 170.835 70.52 169.635 71.24C168.435 71.96 166.888 72.32 164.995 72.32Z" fill="white"/>
<path d="M199.971 72.48C198.077 72.48 196.331 72.1334 194.731 71.44C193.157 70.72 191.864 69.7067 190.851 68.4L194.451 64.08C195.224 65.0934 196.037 65.8667 196.891 66.4C197.744 66.9067 198.664 67.16 199.651 67.16C202.291 67.16 203.611 65.6134 203.611 62.52V49.2H193.771V44H210.051V62.16C210.051 65.6267 209.197 68.2134 207.491 69.92C205.784 71.6267 203.277 72.48 199.971 72.48Z" fill="white"/>
<path d="M226.251 72.32C223.958 72.32 221.918 71.84 220.131 70.88C218.371 69.92 216.971 68.6134 215.931 66.96C214.918 65.28 214.411 63.3734 214.411 61.24C214.411 59.08 214.918 57.1734 215.931 55.52C216.971 53.84 218.371 52.5334 220.131 51.6C221.918 50.64 223.958 50.16 226.251 50.16C228.518 50.16 230.545 50.64 232.331 51.6C234.118 52.5334 235.518 53.8267 236.531 55.48C237.545 57.1334 238.051 59.0534 238.051 61.24C238.051 63.3734 237.545 65.28 236.531 66.96C235.518 68.6134 234.118 69.92 232.331 70.88C230.545 71.84 228.518 72.32 226.251 72.32ZM226.251 67.2C227.291 67.2 228.225 66.96 229.051 66.48C229.878 66 230.531 65.32 231.011 64.44C231.491 63.5334 231.731 62.4667 231.731 61.24C231.731 59.9867 231.491 58.92 231.011 58.04C230.531 57.16 229.878 56.48 229.051 56C228.225 55.52 227.291 55.28 226.251 55.28C225.211 55.28 224.278 55.52 223.451 56C222.625 56.48 221.958 57.16 221.451 58.04C220.971 58.92 220.731 59.9867 220.731 61.24C220.731 62.4667 220.971 63.5334 221.451 64.44C221.958 65.32 222.625 66 223.451 66.48C224.278 66.96 225.211 67.2 226.251 67.2Z" fill="white"/>
<path d="M242.222 72V50.48H248.182V56.56L247.342 54.8C247.982 53.28 249.009 52.1334 250.422 51.36C251.836 50.56 253.556 50.16 255.582 50.16V55.92C255.316 55.8934 255.076 55.88 254.862 55.88C254.649 55.8534 254.422 55.84 254.182 55.84C252.476 55.84 251.089 56.3334 250.022 57.32C248.982 58.28 248.462 59.7867 248.462 61.84V72H242.222Z" fill="white"/>
<path d="M272.412 50.16C274.118 50.16 275.638 50.5067 276.972 51.2C278.332 51.8667 279.398 52.9067 280.172 54.32C280.945 55.7067 281.332 57.4934 281.332 59.68V72H275.092V60.64C275.092 58.9067 274.705 57.6267 273.932 56.8C273.185 55.9734 272.118 55.56 270.732 55.56C269.745 55.56 268.852 55.7734 268.052 56.2C267.278 56.6 266.665 57.2267 266.212 58.08C265.785 58.9334 265.572 60.0267 265.572 61.36V72H259.332V50.48H265.292V56.44L264.172 54.64C264.945 53.2 266.052 52.0934 267.492 51.32C268.932 50.5467 270.572 50.16 272.412 50.16Z" fill="white"/>
<path d="M300.188 72V67.8L299.788 66.88V59.36C299.788 58.0267 299.375 56.9867 298.548 56.24C297.748 55.4934 296.508 55.12 294.828 55.12C293.681 55.12 292.548 55.3067 291.428 55.68C290.335 56.0267 289.401 56.5067 288.628 57.12L286.388 52.76C287.561 51.9334 288.975 51.2934 290.628 50.84C292.281 50.3867 293.961 50.16 295.668 50.16C298.948 50.16 301.495 50.9334 303.308 52.48C305.121 54.0267 306.028 56.44 306.028 59.72V72H300.188ZM293.628 72.32C291.948 72.32 290.508 72.04 289.308 71.48C288.108 70.8934 287.188 70.1067 286.548 69.12C285.908 68.1334 285.588 67.0267 285.588 65.8C285.588 64.52 285.895 63.4 286.508 62.44C287.148 61.48 288.148 60.7334 289.508 60.2C290.868 59.64 292.641 59.36 294.828 59.36H300.548V63H295.508C294.041 63 293.028 63.24 292.468 63.72C291.935 64.2 291.668 64.8 291.668 65.52C291.668 66.32 291.975 66.96 292.588 67.44C293.228 67.8934 294.095 68.12 295.188 68.12C296.228 68.12 297.161 67.88 297.988 67.4C298.815 66.8934 299.415 66.16 299.788 65.2L300.748 68.08C300.295 69.4667 299.468 70.52 298.268 71.24C297.068 71.96 295.521 72.32 293.628 72.32Z" fill="white"/>
<path d="M321.072 72.32C319.045 72.32 317.218 71.8667 315.592 70.96C313.965 70.0267 312.672 68.7334 311.712 67.08C310.778 65.4267 310.312 63.48 310.312 61.24C310.312 58.9734 310.778 57.0134 311.712 55.36C312.672 53.7067 313.965 52.4267 315.592 51.52C317.218 50.6134 319.045 50.16 321.072 50.16C322.885 50.16 324.472 50.56 325.832 51.36C327.192 52.16 328.245 53.3734 328.992 55C329.738 56.6267 330.112 58.7067 330.112 61.24C330.112 63.7467 329.752 65.8267 329.032 67.48C328.312 69.1067 327.272 70.32 325.912 71.12C324.578 71.92 322.965 72.32 321.072 72.32ZM322.152 67.2C323.165 67.2 324.085 66.96 324.912 66.48C325.738 66 326.392 65.32 326.872 64.44C327.378 63.5334 327.632 62.4667 327.632 61.24C327.632 59.9867 327.378 58.92 326.872 58.04C326.392 57.16 325.738 56.48 324.912 56C324.085 55.52 323.165 55.28 322.152 55.28C321.112 55.28 320.178 55.52 319.352 56C318.525 56.48 317.858 57.16 317.352 58.04C316.872 58.92 316.632 59.9867 316.632 61.24C316.632 62.4667 316.872 63.5334 317.352 64.44C317.858 65.32 318.525 66 319.352 66.48C320.178 66.96 321.112 67.2 322.152 67.2ZM327.792 72V67.6L327.912 61.2L327.512 54.84V42.32H333.752V72H327.792Z" fill="white"/>
<path d="M352.727 72V67.8L352.327 66.88V59.36C352.327 58.0267 351.914 56.9867 351.087 56.24C350.287 55.4934 349.047 55.12 347.367 55.12C346.22 55.12 345.087 55.3067 343.967 55.68C342.874 56.0267 341.94 56.5067 341.167 57.12L338.927 52.76C340.1 51.9334 341.514 51.2934 343.167 50.84C344.82 50.3867 346.5 50.16 348.207 50.16C351.487 50.16 354.034 50.9334 355.847 52.48C357.66 54.0267 358.567 56.44 358.567 59.72V72H352.727ZM346.167 72.32C344.487 72.32 343.047 72.04 341.847 71.48C340.647 70.8934 339.727 70.1067 339.087 69.12C338.447 68.1334 338.127 67.0267 338.127 65.8C338.127 64.52 338.434 63.4 339.047 62.44C339.687 61.48 340.687 60.7334 342.047 60.2C343.407 59.64 345.18 59.36 347.367 59.36H353.087V63H348.047C346.58 63 345.567 63.24 345.007 63.72C344.474 64.2 344.207 64.8 344.207 65.52C344.207 66.32 344.514 66.96 345.127 67.44C345.767 67.8934 346.634 68.12 347.727 68.12C348.767 68.12 349.7 67.88 350.527 67.4C351.354 66.8934 351.954 66.16 352.327 65.2L353.287 68.08C352.834 69.4667 352.007 70.52 350.807 71.24C349.607 71.96 348.06 72.32 346.167 72.32Z" fill="white"/>
<path d="M48.8022 96L53.1702 86.2H55.4102L59.7922 96H57.4122L53.8282 87.348H54.7242L51.1262 96H48.8022ZM50.9862 93.9L51.5882 92.178H56.6282L57.2442 93.9H50.9862Z" fill="white"/>
<path d="M64.2266 96.112C63.4146 96.112 62.6913 95.9487 62.0566 95.622C61.422 95.286 60.9226 94.824 60.5586 94.236C60.204 93.648 60.0266 92.9807 60.0266 92.234C60.0266 91.478 60.204 90.8107 60.5586 90.232C60.9226 89.644 61.422 89.1867 62.0566 88.86C62.6913 88.524 63.4146 88.356 64.2266 88.356C65.02 88.356 65.7106 88.524 66.2986 88.86C66.8866 89.1867 67.3206 89.658 67.6006 90.274L65.9066 91.184C65.7106 90.8294 65.4633 90.568 65.1646 90.4C64.8753 90.232 64.558 90.148 64.2126 90.148C63.8393 90.148 63.5033 90.232 63.2046 90.4C62.906 90.568 62.668 90.806 62.4906 91.114C62.3226 91.422 62.2386 91.7954 62.2386 92.234C62.2386 92.6727 62.3226 93.046 62.4906 93.354C62.668 93.662 62.906 93.9 63.2046 94.068C63.5033 94.236 63.8393 94.32 64.2126 94.32C64.558 94.32 64.8753 94.2407 65.1646 94.082C65.4633 93.914 65.7106 93.648 65.9066 93.284L67.6006 94.208C67.3206 94.8147 66.8866 95.286 66.2986 95.622C65.7106 95.9487 65.02 96.112 64.2266 96.112Z" fill="white"/>
<path d="M72.3464 96.112C71.5438 96.112 70.8298 95.944 70.2044 95.608C69.5884 95.272 69.0984 94.8147 68.7344 94.236C68.3798 93.648 68.2024 92.9807 68.2024 92.234C68.2024 91.478 68.3798 90.8107 68.7344 90.232C69.0984 89.644 69.5884 89.1867 70.2044 88.86C70.8298 88.524 71.5438 88.356 72.3464 88.356C73.1398 88.356 73.8491 88.524 74.4744 88.86C75.0998 89.1867 75.5898 89.6394 75.9444 90.218C76.2991 90.7967 76.4764 91.4687 76.4764 92.234C76.4764 92.9807 76.2991 93.648 75.9444 94.236C75.5898 94.8147 75.0998 95.272 74.4744 95.608C73.8491 95.944 73.1398 96.112 72.3464 96.112ZM72.3464 94.32C72.7104 94.32 73.0371 94.236 73.3264 94.068C73.6157 93.9 73.8444 93.662 74.0124 93.354C74.1804 93.0367 74.2644 92.6634 74.2644 92.234C74.2644 91.7954 74.1804 91.422 74.0124 91.114C73.8444 90.806 73.6157 90.568 73.3264 90.4C73.0371 90.232 72.7104 90.148 72.3464 90.148C71.9824 90.148 71.6558 90.232 71.3664 90.4C71.0771 90.568 70.8438 90.806 70.6664 91.114C70.4984 91.422 70.4144 91.7954 70.4144 92.234C70.4144 92.6634 70.4984 93.0367 70.6664 93.354C70.8438 93.662 71.0771 93.9 71.3664 94.068C71.6558 94.236 71.9824 94.32 72.3464 94.32Z" fill="white"/>
<path d="M87.5822 88.356C88.1796 88.356 88.7069 88.4774 89.1642 88.72C89.6309 88.9533 89.9949 89.3174 90.2562 89.812C90.5269 90.2974 90.6622 90.9227 90.6622 91.688V96H88.4782V92.024C88.4782 91.4174 88.3523 90.9694 88.1003 90.68C87.8483 90.3907 87.4936 90.246 87.0362 90.246C86.7189 90.246 86.4343 90.3207 86.1823 90.47C85.9303 90.61 85.7342 90.8247 85.5942 91.114C85.4542 91.4034 85.3842 91.772 85.3842 92.22V96H83.2002V92.024C83.2002 91.4174 83.0743 90.9694 82.8223 90.68C82.5796 90.3907 82.2296 90.246 81.7722 90.246C81.4549 90.246 81.1702 90.3207 80.9182 90.47C80.6662 90.61 80.4702 90.8247 80.3302 91.114C80.1902 91.4034 80.1202 91.772 80.1202 92.22V96H77.9362V88.468H80.0222V90.526L79.6302 89.924C79.8916 89.4107 80.2602 89.0234 80.7362 88.762C81.2216 88.4914 81.7722 88.356 82.3882 88.356C83.0789 88.356 83.6809 88.5334 84.1942 88.888C84.7169 89.2334 85.0622 89.7654 85.2302 90.484L84.4603 90.274C84.7123 89.686 85.1136 89.2194 85.6642 88.874C86.2242 88.5287 86.8636 88.356 87.5822 88.356Z" fill="white"/>
<path d="M97.0718 96.112C96.4372 96.112 95.8818 95.972 95.4058 95.692C94.9298 95.412 94.5565 94.9874 94.2858 94.418C94.0245 93.8394 93.8938 93.1114 93.8938 92.234C93.8938 91.3474 94.0198 90.6194 94.2718 90.05C94.5238 89.4807 94.8878 89.056 95.3638 88.776C95.8398 88.496 96.4092 88.356 97.0718 88.356C97.7812 88.356 98.4158 88.5194 98.9758 88.846C99.5452 89.1634 99.9932 89.6114 100.32 90.19C100.656 90.7687 100.824 91.45 100.824 92.234C100.824 93.0274 100.656 93.7134 100.32 94.292C99.9932 94.8707 99.5452 95.3187 98.9758 95.636C98.4158 95.9534 97.7812 96.112 97.0718 96.112ZM92.6198 98.716V88.468H94.7058V90.008L94.6638 92.248L94.8038 94.474V98.716H92.6198ZM96.6938 94.32C97.0578 94.32 97.3798 94.236 97.6598 94.068C97.9492 93.9 98.1778 93.662 98.3458 93.354C98.5232 93.0367 98.6118 92.6634 98.6118 92.234C98.6118 91.7954 98.5232 91.422 98.3458 91.114C98.1778 90.806 97.9492 90.568 97.6598 90.4C97.3798 90.232 97.0578 90.148 96.6938 90.148C96.3298 90.148 96.0032 90.232 95.7138 90.4C95.4245 90.568 95.1958 90.806 95.0278 91.114C94.8598 91.422 94.7758 91.7954 94.7758 92.234C94.7758 92.6634 94.8598 93.0367 95.0278 93.354C95.1958 93.662 95.4245 93.9 95.7138 94.068C96.0032 94.236 96.3298 94.32 96.6938 94.32Z" fill="white"/>
<path d="M106.783 96V94.53L106.643 94.208V91.576C106.643 91.1094 106.498 90.7454 106.209 90.484C105.929 90.2227 105.495 90.092 104.907 90.092C104.505 90.092 104.109 90.1574 103.717 90.288C103.334 90.4094 103.007 90.5774 102.737 90.792L101.953 89.266C102.363 88.9767 102.858 88.7527 103.437 88.594C104.015 88.4354 104.603 88.356 105.201 88.356C106.349 88.356 107.24 88.6267 107.875 89.168C108.509 89.7094 108.827 90.554 108.827 91.702V96H106.783ZM104.487 96.112C103.899 96.112 103.395 96.014 102.975 95.818C102.555 95.6127 102.233 95.3374 102.009 94.992C101.785 94.6467 101.673 94.2594 101.673 93.83C101.673 93.382 101.78 92.99 101.995 92.654C102.219 92.318 102.569 92.0567 103.045 91.87C103.521 91.674 104.141 91.576 104.907 91.576H106.909V92.85H105.145C104.631 92.85 104.277 92.934 104.081 93.102C103.894 93.27 103.801 93.48 103.801 93.732C103.801 94.012 103.908 94.236 104.123 94.404C104.347 94.5627 104.65 94.642 105.033 94.642C105.397 94.642 105.723 94.558 106.013 94.39C106.302 94.2127 106.512 93.956 106.643 93.62L106.979 94.628C106.82 95.1134 106.531 95.482 106.111 95.734C105.691 95.986 105.149 96.112 104.487 96.112Z" fill="white"/>
<path d="M115.381 88.356C115.979 88.356 116.511 88.4774 116.977 88.72C117.453 88.9533 117.827 89.3174 118.097 89.812C118.368 90.2974 118.503 90.9227 118.503 91.688V96H116.319V92.024C116.319 91.4174 116.184 90.9694 115.913 90.68C115.652 90.3907 115.279 90.246 114.793 90.246C114.448 90.246 114.135 90.3207 113.855 90.47C113.585 90.61 113.37 90.8294 113.211 91.128C113.062 91.4267 112.987 91.8093 112.987 92.276V96H110.803V88.468H112.889V90.554L112.497 89.924C112.768 89.42 113.155 89.0327 113.659 88.762C114.163 88.4914 114.737 88.356 115.381 88.356Z" fill="white"/>
<path d="M125.061 88.356C125.658 88.356 126.19 88.4774 126.657 88.72C127.133 88.9533 127.506 89.3174 127.777 89.812C128.048 90.2974 128.183 90.9227 128.183 91.688V96H125.999V92.024C125.999 91.4174 125.864 90.9694 125.593 90.68C125.332 90.3907 124.958 90.246 124.473 90.246C124.128 90.246 123.815 90.3207 123.535 90.47C123.264 90.61 123.05 90.8294 122.891 91.128C122.742 91.4267 122.667 91.8093 122.667 92.276V96H120.483V85.612H122.667V90.554L122.177 89.924C122.448 89.42 122.835 89.0327 123.339 88.762C123.843 88.4914 124.417 88.356 125.061 88.356Z" fill="white"/>
<path d="M133.956 96.112C133.097 96.112 132.341 95.944 131.688 95.608C131.044 95.272 130.544 94.8147 130.189 94.236C129.835 93.648 129.658 92.9807 129.658 92.234C129.658 91.478 129.83 90.8107 130.176 90.232C130.53 89.644 131.011 89.1867 131.617 88.86C132.224 88.524 132.91 88.356 133.676 88.356C134.413 88.356 135.075 88.5147 135.663 88.832C136.261 89.14 136.732 89.588 137.077 90.176C137.423 90.7547 137.595 91.45 137.595 92.262C137.595 92.346 137.591 92.444 137.581 92.556C137.572 92.6587 137.563 92.7567 137.553 92.85H131.435V91.576H136.405L135.565 91.954C135.565 91.562 135.486 91.2214 135.327 90.932C135.169 90.6427 134.949 90.4187 134.669 90.26C134.389 90.092 134.063 90.008 133.689 90.008C133.316 90.008 132.985 90.092 132.695 90.26C132.415 90.4187 132.196 90.6474 132.038 90.946C131.879 91.2354 131.799 91.5807 131.799 91.982V92.318C131.799 92.7287 131.888 93.0927 132.065 93.41C132.252 93.718 132.509 93.956 132.835 94.124C133.171 94.2827 133.564 94.362 134.012 94.362C134.413 94.362 134.763 94.3014 135.061 94.18C135.369 94.0587 135.649 93.8767 135.901 93.634L137.064 94.894C136.718 95.286 136.284 95.5894 135.762 95.804C135.239 96.0094 134.637 96.112 133.956 96.112Z" fill="white"/>
<path d="M145.548 96.112C144.904 96.112 144.284 96.0374 143.686 95.888C143.098 95.7294 142.632 95.5334 142.286 95.3L143.014 93.732C143.36 93.9467 143.766 94.124 144.232 94.264C144.708 94.3947 145.175 94.46 145.632 94.46C146.136 94.46 146.491 94.3994 146.696 94.278C146.911 94.1567 147.018 93.9887 147.018 93.774C147.018 93.5967 146.934 93.466 146.766 93.382C146.608 93.2887 146.393 93.2187 146.122 93.172C145.852 93.1254 145.553 93.0787 145.226 93.032C144.909 92.9854 144.587 92.9247 144.26 92.85C143.934 92.766 143.635 92.6447 143.364 92.486C143.094 92.3274 142.874 92.1127 142.706 91.842C142.548 91.5714 142.468 91.2214 142.468 90.792C142.468 90.316 142.604 89.896 142.874 89.532C143.154 89.168 143.556 88.8834 144.078 88.678C144.601 88.4634 145.226 88.356 145.954 88.356C146.468 88.356 146.99 88.412 147.522 88.524C148.054 88.636 148.498 88.7994 148.852 89.014L148.124 90.568C147.76 90.3534 147.392 90.2087 147.018 90.134C146.654 90.05 146.3 90.008 145.954 90.008C145.469 90.008 145.114 90.0734 144.89 90.204C144.666 90.3347 144.554 90.5027 144.554 90.708C144.554 90.8947 144.634 91.0347 144.792 91.128C144.96 91.2214 145.18 91.296 145.45 91.352C145.721 91.408 146.015 91.4594 146.332 91.506C146.659 91.5434 146.986 91.604 147.312 91.688C147.639 91.772 147.933 91.8934 148.194 92.052C148.465 92.2014 148.684 92.4114 148.852 92.682C149.02 92.9434 149.104 93.2887 149.104 93.718C149.104 94.1847 148.964 94.6 148.684 94.964C148.404 95.3187 147.998 95.5987 147.466 95.804C146.944 96.0094 146.304 96.112 145.548 96.112Z" fill="white"/>
<path d="M154.19 96.112C153.331 96.112 152.575 95.944 151.922 95.608C151.278 95.272 150.779 94.8147 150.424 94.236C150.069 93.648 149.892 92.9807 149.892 92.234C149.892 91.478 150.065 90.8107 150.41 90.232C150.765 89.644 151.245 89.1867 151.852 88.86C152.459 88.524 153.145 88.356 153.91 88.356C154.647 88.356 155.31 88.5147 155.898 88.832C156.495 89.14 156.967 89.588 157.312 90.176C157.657 90.7547 157.83 91.45 157.83 92.262C157.83 92.346 157.825 92.444 157.816 92.556C157.807 92.6587 157.797 92.7567 157.788 92.85H151.67V91.576H156.64L155.8 91.954C155.8 91.562 155.721 91.2214 155.562 90.932C155.403 90.6427 155.184 90.4187 154.904 90.26C154.624 90.092 154.297 90.008 153.924 90.008C153.551 90.008 153.219 90.092 152.93 90.26C152.65 90.4187 152.431 90.6474 152.272 90.946C152.113 91.2354 152.034 91.5807 152.034 91.982V92.318C152.034 92.7287 152.123 93.0927 152.3 93.41C152.487 93.718 152.743 93.956 153.07 94.124C153.406 94.2827 153.798 94.362 154.246 94.362C154.647 94.362 154.997 94.3014 155.296 94.18C155.604 94.0587 155.884 93.8767 156.136 93.634L157.298 94.894C156.953 95.286 156.519 95.5894 155.996 95.804C155.473 96.0094 154.871 96.112 154.19 96.112Z" fill="white"/>
<path d="M162.462 96.112C161.837 96.112 161.277 95.9907 160.782 95.748C160.297 95.5053 159.919 95.1367 159.648 94.642C159.377 94.138 159.242 93.4987 159.242 92.724V88.468H161.426V92.402C161.426 93.0274 161.557 93.4894 161.818 93.788C162.089 94.0774 162.467 94.222 162.952 94.222C163.288 94.222 163.587 94.152 163.848 94.012C164.109 93.8627 164.315 93.6387 164.464 93.34C164.613 93.032 164.688 92.6494 164.688 92.192V88.468H166.872V96H164.8V93.928L165.178 94.53C164.926 95.0527 164.553 95.4493 164.058 95.72C163.573 95.9813 163.041 96.112 162.462 96.112Z" fill="white"/>
<path d="M177.312 96.112C176.677 96.112 176.122 95.972 175.646 95.692C175.17 95.412 174.797 94.9874 174.526 94.418C174.265 93.8394 174.134 93.1114 174.134 92.234C174.134 91.3474 174.26 90.6194 174.512 90.05C174.764 89.4807 175.128 89.056 175.604 88.776C176.08 88.496 176.649 88.356 177.312 88.356C178.021 88.356 178.656 88.5194 179.216 88.846C179.785 89.1634 180.233 89.6114 180.56 90.19C180.896 90.7687 181.064 91.45 181.064 92.234C181.064 93.0274 180.896 93.7134 180.56 94.292C180.233 94.8707 179.785 95.3187 179.216 95.636C178.656 95.9534 178.021 96.112 177.312 96.112ZM172.86 98.716V88.468H174.946V90.008L174.904 92.248L175.044 94.474V98.716H172.86ZM176.934 94.32C177.298 94.32 177.62 94.236 177.9 94.068C178.189 93.9 178.418 93.662 178.586 93.354C178.763 93.0367 178.852 92.6634 178.852 92.234C178.852 91.7954 178.763 91.422 178.586 91.114C178.418 90.806 178.189 90.568 177.9 90.4C177.62 90.232 177.298 90.148 176.934 90.148C176.57 90.148 176.243 90.232 175.954 90.4C175.665 90.568 175.436 90.806 175.268 91.114C175.1 91.422 175.016 91.7954 175.016 92.234C175.016 92.6634 175.1 93.0367 175.268 93.354C175.436 93.662 175.665 93.9 175.954 94.068C176.243 94.236 176.57 94.32 176.934 94.32Z" fill="white"/>
<path d="M182.526 96V88.468H184.612V90.596L184.318 89.98C184.542 89.448 184.901 89.0467 185.396 88.776C185.891 88.496 186.493 88.356 187.202 88.356V90.372C187.109 90.3627 187.025 90.358 186.95 90.358C186.875 90.3487 186.796 90.344 186.712 90.344C186.115 90.344 185.629 90.5167 185.256 90.862C184.892 91.198 184.71 91.7254 184.71 92.444V96H182.526Z" fill="white"/>
<path d="M192.03 96.112C191.227 96.112 190.513 95.944 189.888 95.608C189.272 95.272 188.782 94.8147 188.418 94.236C188.063 93.648 187.886 92.9807 187.886 92.234C187.886 91.478 188.063 90.8107 188.418 90.232C188.782 89.644 189.272 89.1867 189.888 88.86C190.513 88.524 191.227 88.356 192.03 88.356C192.823 88.356 193.533 88.524 194.158 88.86C194.783 89.1867 195.273 89.6394 195.628 90.218C195.983 90.7967 196.16 91.4687 196.16 92.234C196.16 92.9807 195.983 93.648 195.628 94.236C195.273 94.8147 194.783 95.272 194.158 95.608C193.533 95.944 192.823 96.112 192.03 96.112ZM192.03 94.32C192.394 94.32 192.721 94.236 193.01 94.068C193.299 93.9 193.528 93.662 193.696 93.354C193.864 93.0367 193.948 92.6634 193.948 92.234C193.948 91.7954 193.864 91.422 193.696 91.114C193.528 90.806 193.299 90.568 193.01 90.4C192.721 90.232 192.394 90.148 192.03 90.148C191.666 90.148 191.339 90.232 191.05 90.4C190.761 90.568 190.527 90.806 190.35 91.114C190.182 91.422 190.098 91.7954 190.098 92.234C190.098 92.6634 190.182 93.0367 190.35 93.354C190.527 93.662 190.761 93.9 191.05 94.068C191.339 94.236 191.666 94.32 192.03 94.32Z" fill="white"/>
<path d="M201.162 98.828C200.453 98.828 199.767 98.7394 199.104 98.562C198.451 98.394 197.905 98.1374 197.466 97.792L198.334 96.224C198.651 96.4854 199.053 96.6907 199.538 96.84C200.033 96.9987 200.518 97.078 200.994 97.078C201.769 97.078 202.329 96.9054 202.674 96.56C203.029 96.2147 203.206 95.7014 203.206 95.02V93.886L203.346 91.996L203.318 90.092V88.468H205.39V94.74C205.39 96.14 205.026 97.1714 204.298 97.834C203.57 98.4967 202.525 98.828 201.162 98.828ZM200.826 95.636C200.126 95.636 199.491 95.4867 198.922 95.188C198.362 94.88 197.909 94.4554 197.564 93.914C197.228 93.3634 197.06 92.724 197.06 91.996C197.06 91.2587 197.228 90.6194 197.564 90.078C197.909 89.5274 198.362 89.1027 198.922 88.804C199.491 88.5054 200.126 88.356 200.826 88.356C201.461 88.356 202.021 88.4867 202.506 88.748C202.991 89 203.369 89.3967 203.64 89.938C203.911 90.47 204.046 91.156 204.046 91.996C204.046 92.8267 203.911 93.5127 203.64 94.054C203.369 94.586 202.991 94.9827 202.506 95.244C202.021 95.5054 201.461 95.636 200.826 95.636ZM201.26 93.844C201.643 93.844 201.983 93.7694 202.282 93.62C202.581 93.4614 202.814 93.242 202.982 92.962C203.15 92.682 203.234 92.36 203.234 91.996C203.234 91.6227 203.15 91.3007 202.982 91.03C202.814 90.75 202.581 90.5354 202.282 90.386C201.983 90.2274 201.643 90.148 201.26 90.148C200.877 90.148 200.537 90.2274 200.238 90.386C199.939 90.5354 199.701 90.75 199.524 91.03C199.356 91.3007 199.272 91.6227 199.272 91.996C199.272 92.36 199.356 92.682 199.524 92.962C199.701 93.242 199.939 93.4614 200.238 93.62C200.537 93.7694 200.877 93.844 201.26 93.844Z" fill="white"/>
<path d="M207.423 96V88.468H209.509V90.596L209.215 89.98C209.439 89.448 209.798 89.0467 210.293 88.776C210.787 88.496 211.389 88.356 212.099 88.356V90.372C212.005 90.3627 211.921 90.358 211.847 90.358C211.772 90.3487 211.693 90.344 211.609 90.344C211.011 90.344 210.526 90.5167 210.153 90.862C209.789 91.198 209.607 91.7254 209.607 92.444V96H207.423Z" fill="white"/>
<path d="M217.08 96.112C216.222 96.112 215.466 95.944 214.812 95.608C214.169 95.272 213.669 94.8147 213.314 94.236C212.96 93.648 212.783 92.9807 212.783 92.234C212.783 91.478 212.955 90.8107 213.3 90.232C213.655 89.644 214.136 89.1867 214.742 88.86C215.349 88.524 216.035 88.356 216.8 88.356C217.538 88.356 218.2 88.5147 218.788 88.832C219.386 89.14 219.857 89.588 220.202 90.176C220.548 90.7547 220.72 91.45 220.72 92.262C220.72 92.346 220.716 92.444 220.706 92.556C220.697 92.6587 220.688 92.7567 220.678 92.85H214.561V91.576H219.531L218.69 91.954C218.69 91.562 218.611 91.2214 218.452 90.932C218.294 90.6427 218.074 90.4187 217.794 90.26C217.514 90.092 217.188 90.008 216.814 90.008C216.441 90.008 216.11 90.092 215.82 90.26C215.54 90.4187 215.321 90.6474 215.162 90.946C215.004 91.2354 214.924 91.5807 214.924 91.982V92.318C214.924 92.7287 215.013 93.0927 215.19 93.41C215.377 93.718 215.634 93.956 215.96 94.124C216.296 94.2827 216.688 94.362 217.136 94.362C217.538 94.362 217.888 94.3014 218.186 94.18C218.494 94.0587 218.774 93.8767 219.026 93.634L220.188 94.894C219.843 95.286 219.409 95.5894 218.886 95.804C218.364 96.0094 217.762 96.112 217.08 96.112Z" fill="white"/>
<path d="M224.709 96.112C224.065 96.112 223.444 96.0374 222.847 95.888C222.259 95.7294 221.792 95.5334 221.447 95.3L222.175 93.732C222.52 93.9467 222.926 94.124 223.393 94.264C223.869 94.3947 224.335 94.46 224.793 94.46C225.297 94.46 225.651 94.3994 225.857 94.278C226.071 94.1567 226.179 93.9887 226.179 93.774C226.179 93.5967 226.095 93.466 225.927 93.382C225.768 93.2887 225.553 93.2187 225.283 93.172C225.012 93.1254 224.713 93.0787 224.387 93.032C224.069 92.9854 223.747 92.9247 223.421 92.85C223.094 92.766 222.795 92.6447 222.525 92.486C222.254 92.3274 222.035 92.1127 221.867 91.842C221.708 91.5714 221.629 91.2214 221.629 90.792C221.629 90.316 221.764 89.896 222.035 89.532C222.315 89.168 222.716 88.8834 223.239 88.678C223.761 88.4634 224.387 88.356 225.115 88.356C225.628 88.356 226.151 88.412 226.683 88.524C227.215 88.636 227.658 88.7994 228.013 89.014L227.285 90.568C226.921 90.3534 226.552 90.2087 226.179 90.134C225.815 90.05 225.46 90.008 225.115 90.008C224.629 90.008 224.275 90.0734 224.051 90.204C223.827 90.3347 223.715 90.5027 223.715 90.708C223.715 90.8947 223.794 91.0347 223.953 91.128C224.121 91.2214 224.34 91.296 224.611 91.352C224.881 91.408 225.175 91.4594 225.493 91.506C225.819 91.5434 226.146 91.604 226.473 91.688C226.799 91.772 227.093 91.8934 227.355 92.052C227.625 92.2014 227.845 92.4114 228.013 92.682C228.181 92.9434 228.265 93.2887 228.265 93.718C228.265 94.1847 228.125 94.6 227.845 94.964C227.565 95.3187 227.159 95.5987 226.627 95.804C226.104 96.0094 225.465 96.112 224.709 96.112Z" fill="white"/>
<path d="M232.146 96.112C231.502 96.112 230.881 96.0374 230.284 95.888C229.696 95.7294 229.229 95.5334 228.884 95.3L229.612 93.732C229.957 93.9467 230.363 94.124 230.83 94.264C231.306 94.3947 231.773 94.46 232.23 94.46C232.734 94.46 233.089 94.3994 233.294 94.278C233.509 94.1567 233.616 93.9887 233.616 93.774C233.616 93.5967 233.532 93.466 233.364 93.382C233.205 93.2887 232.991 93.2187 232.72 93.172C232.449 93.1254 232.151 93.0787 231.824 93.032C231.507 92.9854 231.185 92.9247 230.858 92.85C230.531 92.766 230.233 92.6447 229.962 92.486C229.691 92.3274 229.472 92.1127 229.304 91.842C229.145 91.5714 229.066 91.2214 229.066 90.792C229.066 90.316 229.201 89.896 229.472 89.532C229.752 89.168 230.153 88.8834 230.676 88.678C231.199 88.4634 231.824 88.356 232.552 88.356C233.065 88.356 233.588 88.412 234.12 88.524C234.652 88.636 235.095 88.7994 235.45 89.014L234.722 90.568C234.358 90.3534 233.989 90.2087 233.616 90.134C233.252 90.05 232.897 90.008 232.552 90.008C232.067 90.008 231.712 90.0734 231.488 90.204C231.264 90.3347 231.152 90.5027 231.152 90.708C231.152 90.8947 231.231 91.0347 231.39 91.128C231.558 91.2214 231.777 91.296 232.048 91.352C232.319 91.408 232.613 91.4594 232.93 91.506C233.257 91.5434 233.583 91.604 233.91 91.688C234.237 91.772 234.531 91.8934 234.792 92.052C235.063 92.2014 235.282 92.4114 235.45 92.682C235.618 92.9434 235.702 93.2887 235.702 93.718C235.702 94.1847 235.562 94.6 235.282 94.964C235.002 95.3187 234.596 95.5987 234.064 95.804C233.541 96.0094 232.902 96.112 232.146 96.112Z" fill="white"/>
<path d="M240.634 96.112C239.831 96.112 239.117 95.944 238.492 95.608C237.876 95.272 237.386 94.8147 237.022 94.236C236.667 93.648 236.49 92.9807 236.49 92.234C236.49 91.478 236.667 90.8107 237.022 90.232C237.386 89.644 237.876 89.1867 238.492 88.86C239.117 88.524 239.831 88.356 240.634 88.356C241.427 88.356 242.136 88.524 242.762 88.86C243.387 89.1867 243.877 89.6394 244.232 90.218C244.586 90.7967 244.764 91.4687 244.764 92.234C244.764 92.9807 244.586 93.648 244.232 94.236C243.877 94.8147 243.387 95.272 242.762 95.608C242.136 95.944 241.427 96.112 240.634 96.112ZM240.634 94.32C240.998 94.32 241.324 94.236 241.614 94.068C241.903 93.9 242.132 93.662 242.3 93.354C242.468 93.0367 242.552 92.6634 242.552 92.234C242.552 91.7954 242.468 91.422 242.3 91.114C242.132 90.806 241.903 90.568 241.614 90.4C241.324 90.232 240.998 90.148 240.634 90.148C240.27 90.148 239.943 90.232 239.654 90.4C239.364 90.568 239.131 90.806 238.954 91.114C238.786 91.422 238.702 91.7954 238.702 92.234C238.702 92.6634 238.786 93.0367 238.954 93.354C239.131 93.662 239.364 93.9 239.654 94.068C239.943 94.236 240.27 94.32 240.634 94.32Z" fill="white"/>
<path d="M254.766 88.356C255.364 88.356 255.896 88.4774 256.362 88.72C256.838 88.9533 257.212 89.3174 257.482 89.812C257.753 90.2974 257.888 90.9227 257.888 91.688V96H255.704V92.024C255.704 91.4174 255.569 90.9694 255.298 90.68C255.037 90.3907 254.664 90.246 254.178 90.246C253.833 90.246 253.52 90.3207 253.24 90.47C252.97 90.61 252.755 90.8294 252.596 91.128C252.447 91.4267 252.372 91.8093 252.372 92.276V96H250.188V88.468H252.274V90.554L251.882 89.924C252.153 89.42 252.54 89.0327 253.044 88.762C253.548 88.4914 254.122 88.356 254.766 88.356Z" fill="white"/>
<path d="M263.507 96.112C262.704 96.112 261.99 95.944 261.365 95.608C260.749 95.272 260.259 94.8147 259.895 94.236C259.54 93.648 259.363 92.9807 259.363 92.234C259.363 91.478 259.54 90.8107 259.895 90.232C260.259 89.644 260.749 89.1867 261.365 88.86C261.99 88.524 262.704 88.356 263.507 88.356C264.3 88.356 265.009 88.524 265.635 88.86C266.26 89.1867 266.75 89.6394 267.105 90.218C267.459 90.7967 267.637 91.4687 267.637 92.234C267.637 92.9807 267.459 93.648 267.105 94.236C266.75 94.8147 266.26 95.272 265.635 95.608C265.009 95.944 264.3 96.112 263.507 96.112ZM263.507 94.32C263.871 94.32 264.197 94.236 264.487 94.068C264.776 93.9 265.005 93.662 265.173 93.354C265.341 93.0367 265.425 92.6634 265.425 92.234C265.425 91.7954 265.341 91.422 265.173 91.114C265.005 90.806 264.776 90.568 264.487 90.4C264.197 90.232 263.871 90.148 263.507 90.148C263.143 90.148 262.816 90.232 262.527 90.4C262.237 90.568 262.004 90.806 261.827 91.114C261.659 91.422 261.575 91.7954 261.575 92.234C261.575 92.6634 261.659 93.0367 261.827 93.354C262.004 93.662 262.237 93.9 262.527 94.068C262.816 94.236 263.143 94.32 263.507 94.32Z" fill="white"/>
<path d="M276.435 96.168C275.651 96.168 274.9 96.0654 274.181 95.86C273.463 95.6454 272.884 95.37 272.445 95.034L273.215 93.326C273.635 93.6247 274.13 93.872 274.699 94.068C275.278 94.2547 275.861 94.348 276.449 94.348C276.897 94.348 277.257 94.306 277.527 94.222C277.807 94.1287 278.013 94.0027 278.143 93.844C278.274 93.6854 278.339 93.5034 278.339 93.298C278.339 93.0367 278.237 92.8314 278.031 92.682C277.826 92.5234 277.555 92.3974 277.219 92.304C276.883 92.2014 276.51 92.108 276.099 92.024C275.698 91.9307 275.292 91.8187 274.881 91.688C274.48 91.5574 274.111 91.3894 273.775 91.184C273.439 90.9787 273.164 90.708 272.949 90.372C272.744 90.036 272.641 89.6067 272.641 89.084C272.641 88.524 272.791 88.0154 273.089 87.558C273.397 87.0914 273.855 86.7227 274.461 86.452C275.077 86.172 275.847 86.032 276.771 86.032C277.387 86.032 277.994 86.1067 278.591 86.256C279.189 86.396 279.716 86.6107 280.173 86.9L279.473 88.622C279.016 88.3607 278.559 88.1694 278.101 88.048C277.644 87.9174 277.196 87.852 276.757 87.852C276.319 87.852 275.959 87.9034 275.679 88.006C275.399 88.1087 275.199 88.244 275.077 88.412C274.956 88.5707 274.895 88.7574 274.895 88.972C274.895 89.224 274.998 89.4294 275.203 89.588C275.409 89.7374 275.679 89.8587 276.015 89.952C276.351 90.0454 276.72 90.1387 277.121 90.232C277.532 90.3254 277.938 90.4327 278.339 90.554C278.75 90.6753 279.123 90.8387 279.459 91.044C279.795 91.2494 280.066 91.52 280.271 91.856C280.486 92.192 280.593 92.6167 280.593 93.13C280.593 93.6807 280.439 94.1847 280.131 94.642C279.823 95.0994 279.361 95.468 278.745 95.748C278.139 96.028 277.369 96.168 276.435 96.168Z" fill="white"/>
<path d="M280.855 96L285.223 86.2H287.463L291.845 96H289.465L285.881 87.348H286.777L283.179 96H280.855ZM283.039 93.9L283.641 92.178H288.681L289.297 93.9H283.039Z" fill="white"/>
<path d="M294.948 90.148H299.666V91.912H294.948V90.148ZM295.116 94.18H300.45V96H292.862V86.2H300.268V88.02H295.116V94.18Z" fill="white"/>
<path d="M302.254 96V86.2H307.042C308.274 86.2 309.198 86.4334 309.814 86.9C310.44 87.3667 310.752 87.9827 310.752 88.748C310.752 89.2613 310.626 89.7094 310.374 90.092C310.122 90.4654 309.777 90.7547 309.338 90.96C308.9 91.1654 308.396 91.268 307.826 91.268L308.092 90.694C308.708 90.694 309.254 90.7967 309.73 91.002C310.206 91.198 310.575 91.492 310.836 91.884C311.107 92.276 311.242 92.7567 311.242 93.326C311.242 94.166 310.911 94.824 310.248 95.3C309.586 95.7667 308.61 96 307.322 96H302.254ZM304.508 94.292H307.154C307.742 94.292 308.186 94.1987 308.484 94.012C308.792 93.816 308.946 93.508 308.946 93.088C308.946 92.6774 308.792 92.374 308.484 92.178C308.186 91.9727 307.742 91.87 307.154 91.87H304.34V90.218H306.762C307.313 90.218 307.733 90.1247 308.022 89.938C308.321 89.742 308.47 89.448 308.47 89.056C308.47 88.6734 308.321 88.3887 308.022 88.202C307.733 88.006 307.313 87.908 306.762 87.908H304.508V94.292Z" fill="white"/>
<path d="M318.954 96V88.048H315.818V86.2H324.358V88.048H321.222V96H318.954Z" fill="white"/>
<path d="M329.768 96.168C328.378 96.168 327.29 95.7807 326.506 95.006C325.722 94.2314 325.33 93.1254 325.33 91.688V86.2H327.598V91.604C327.598 92.5374 327.79 93.2094 328.172 93.62C328.555 94.0307 329.092 94.236 329.782 94.236C330.473 94.236 331.01 94.0307 331.392 93.62C331.775 93.2094 331.966 92.5374 331.966 91.604V86.2H334.206V91.688C334.206 93.1254 333.814 94.2314 333.03 95.006C332.246 95.7807 331.159 96.168 329.768 96.168Z" fill="white"/>
<path d="M336.448 96V86.2H340.9C341.964 86.2 342.902 86.4054 343.714 86.816C344.526 87.2174 345.16 87.782 345.618 88.51C346.075 89.238 346.304 90.1014 346.304 91.1C346.304 92.0894 346.075 92.9527 345.618 93.69C345.16 94.418 344.526 94.9874 343.714 95.398C342.902 95.7994 341.964 96 340.9 96H336.448ZM338.716 94.138H340.788C341.441 94.138 342.006 94.0167 342.482 93.774C342.967 93.522 343.34 93.1674 343.602 92.71C343.872 92.2527 344.008 91.716 344.008 91.1C344.008 90.4747 343.872 89.938 343.602 89.49C343.34 89.0327 342.967 88.6827 342.482 88.44C342.006 88.188 341.441 88.062 340.788 88.062H338.716V94.138Z" fill="white"/>
<path d="M352.774 96.168C351.999 96.168 351.281 96.042 350.618 95.79C349.965 95.538 349.395 95.1834 348.91 94.726C348.434 94.2687 348.061 93.732 347.79 93.116C347.529 92.5 347.398 91.828 347.398 91.1C347.398 90.372 347.529 89.7 347.79 89.084C348.061 88.468 348.439 87.9314 348.924 87.474C349.409 87.0167 349.979 86.662 350.632 86.41C351.285 86.158 351.995 86.032 352.76 86.032C353.535 86.032 354.244 86.158 354.888 86.41C355.541 86.662 356.106 87.0167 356.582 87.474C357.067 87.9314 357.445 88.468 357.716 89.084C357.987 89.6907 358.122 90.3627 358.122 91.1C358.122 91.828 357.987 92.5047 357.716 93.13C357.445 93.746 357.067 94.2827 356.582 94.74C356.106 95.188 355.541 95.538 354.888 95.79C354.244 96.042 353.539 96.168 352.774 96.168ZM352.76 94.236C353.199 94.236 353.6 94.1614 353.964 94.012C354.337 93.8627 354.664 93.648 354.944 93.368C355.224 93.088 355.439 92.7567 355.588 92.374C355.747 91.9914 355.826 91.5667 355.826 91.1C355.826 90.6334 355.747 90.2087 355.588 89.826C355.439 89.4434 355.224 89.112 354.944 88.832C354.673 88.552 354.351 88.3374 353.978 88.188C353.605 88.0387 353.199 87.964 352.76 87.964C352.321 87.964 351.915 88.0387 351.542 88.188C351.178 88.3374 350.856 88.552 350.576 88.832C350.296 89.112 350.077 89.4434 349.918 89.826C349.769 90.2087 349.694 90.6334 349.694 91.1C349.694 91.5574 349.769 91.982 349.918 92.374C350.077 92.7567 350.291 93.088 350.562 93.368C350.842 93.648 351.169 93.8627 351.542 94.012C351.915 94.1614 352.321 94.236 352.76 94.236Z" fill="white"/>
<defs>
<radialGradient id="paint0_radial_650_212" cx="0" cy="0" r="1" gradientUnits="userSpaceOnUse" gradientTransform="translate(205.963 99.1942) scale(206.037 99.1942)">
<stop stop-color="#1E50F3"/>
<stop offset="0.461773" stop-color="#1643D6"/>
<stop offset="1" stop-color="#05299E"/>
</radialGradient>
<radialGradient id="paint1_radial_650_212" cx="0" cy="0" r="1" gradientUnits="userSpaceOnUse" gradientTransform="translate(205.963 99.1942) scale(206.037 99.1942)">
<stop stop-color="#1E50F3"/>
<stop offset="0.461773" stop-color="#1643D6"/>
<stop offset="1" stop-color="#05299E"/>
</radialGradient>
</defs>
</svg>
